<svg id="svg" version="1.1" xmlns="http://www.w3.org/2000/svg" xmlns:xlink="http://www.w3.org/1999/xlink" width="400" height="400" viewBox="0, 0, 400,400"><g id="svgg"><path id="path0" d="M62.495 82.700 L 62.600 97.400 79.600 97.400 L 96.600 97.400 96.705 82.700 L 96.810 68.000 79.600 68.000 L 62.390 68.000 62.495 82.700 M216.158 68.973 C 216.293 69.513,217.634 72.529,219.138 75.677 C 220.642 78.825,222.196 82.120,222.592 83.000 C 222.987 83.880,224.518 87.120,225.993 90.200 C 227.468 93.280,228.961 96.430,229.311 97.200 C 229.661 97.970,230.866 100.635,231.988 103.121 C 233.111 105.608,235.387 110.468,237.047 113.921 C 238.707 117.375,240.485 121.100,240.998 122.200 C 241.511 123.300,242.963 126.360,244.223 129.000 C 245.484 131.640,247.101 135.150,247.817 136.800 C 248.532 138.450,250.766 143.220,252.781 147.400 C 254.796 151.580,256.794 155.765,257.222 156.700 C 257.650 157.635,258.349 159.165,258.774 160.100 C 259.200 161.035,260.480 163.780,261.618 166.200 C 262.755 168.620,264.907 173.210,266.399 176.400 C 267.891 179.590,269.942 183.972,270.956 186.137 C 273.250 191.034,273.410 189.472,269.798 197.400 C 267.691 202.023,262.800 213.201,262.800 213.392 C 262.800 213.498,262.102 215.073,261.250 216.893 C 260.397 218.712,259.426 220.830,259.092 221.600 C 257.984 224.154,255.642 229.424,254.155 232.712 C 253.630 233.873,253.200 234.908,253.200 235.010 C 253.200 235.113,252.545 236.592,251.743 238.298 C 249.160 243.800,246.865 249.382,247.059 249.695 C 247.162 249.863,254.973 250.000,264.415 250.000 L 281.584 250.000 282.345 248.500 C 282.764 247.675,284.496 243.760,286.193 239.800 C 289.212 232.760,289.897 231.193,291.845 226.888 C 292.370 225.727,292.800 224.696,292.800 224.598 C 292.800 224.500,293.340 223.246,294.000 221.810 C 294.660 220.375,295.740 218.025,296.400 216.590 C 297.060 215.154,297.600 213.911,297.600 213.826 C 297.600 213.741,298.210 212.350,298.956 210.736 C 299.702 209.121,301.138 205.884,302.147 203.542 C 303.157 201.201,304.722 197.691,305.627 195.742 C 307.374 191.977,308.506 189.476,309.490 187.200 C 309.823 186.430,310.507 184.900,311.010 183.800 C 311.513 182.700,312.322 180.900,312.807 179.800 C 313.292 178.700,314.141 176.810,314.694 175.600 C 315.246 174.390,316.012 172.680,316.397 171.800 C 316.781 170.920,318.396 167.410,319.985 164.000 C 324.753 153.770,325.079 153.064,325.801 151.400 C 326.922 148.817,328.189 146.053,330.109 142.000 C 331.653 138.741,335.071 131.286,338.959 122.700 C 339.531 121.435,340.450 119.410,341.000 118.200 C 341.550 116.990,342.469 114.965,343.041 113.700 C 343.614 112.435,344.694 110.079,345.441 108.464 C 346.189 106.850,346.800 105.473,346.800 105.404 C 346.800 105.336,347.499 103.777,348.354 101.940 C 349.824 98.780,355.341 86.623,356.675 83.600 C 357.815 81.020,359.666 77.030,361.408 73.400 C 362.359 71.420,363.253 69.393,363.396 68.896 L 363.656 67.992 345.172 68.096 C 329.217 68.186,326.645 68.282,326.377 68.800 C 325.874 69.772,324.966 71.951,323.375 76.000 C 322.553 78.090,321.728 79.971,321.541 80.180 C 321.353 80.389,321.200 80.796,321.200 81.084 C 321.200 81.373,320.819 82.462,320.353 83.504 C 318.985 86.570,318.647 87.382,314.997 96.400 C 313.082 101.130,311.155 105.810,310.716 106.800 C 309.309 109.965,308.536 111.808,307.654 114.100 C 307.076 115.601,306.327 117.360,305.953 118.095 C 305.759 118.477,305.600 118.974,305.600 119.199 C 305.600 119.424,305.222 120.462,304.760 121.504 C 304.298 122.547,303.761 123.760,303.567 124.200 C 302.450 126.728,296.384 141.740,295.878 143.229 C 295.264 145.033,294.186 147.956,293.602 149.400 C 293.201 150.391,291.760 154.342,291.439 155.330 C 291.007 156.660,289.881 155.883,289.142 153.745 C 288.221 151.080,282.988 137.901,281.979 135.704 C 281.551 134.772,281.200 133.773,281.200 133.484 C 281.200 133.196,281.057 132.789,280.882 132.580 C 280.707 132.371,280.322 131.480,280.028 130.600 C 279.733 129.720,279.139 128.190,278.706 127.200 C 278.274 126.210,277.777 125.040,277.601 124.600 C 277.425 124.160,276.972 123.080,276.593 122.200 C 275.524 119.713,274.748 117.874,274.400 117.000 C 274.225 116.560,273.811 115.570,273.481 114.800 C 273.150 114.030,272.072 111.420,271.085 109.000 C 270.097 106.580,268.845 103.610,268.301 102.400 C 267.758 101.190,266.635 98.580,265.805 96.600 C 264.975 94.620,263.941 92.190,263.506 91.200 C 262.763 89.508,262.410 88.691,261.043 85.500 C 260.737 84.785,260.017 83.160,259.443 81.888 C 258.869 80.617,258.400 79.490,258.400 79.384 C 258.400 79.278,258.043 78.428,257.607 77.496 C 257.171 76.563,256.124 74.090,255.279 72.000 L 253.743 68.200 234.827 68.096 L 215.911 67.992 216.158 68.973 M62.618 111.296 C 62.347 112.152,62.098 183.606,62.312 199.199 L 62.514 213.920 79.157 214.079 C 88.311 214.166,96.026 214.164,96.302 214.075 C 96.701 213.946,96.782 203.423,96.702 162.457 L 96.600 111.000 79.689 110.896 C 66.361 110.813,62.744 110.898,62.618 111.296 M130.094 122.700 L 130.200 134.200 150.200 134.291 C 161.200 134.341,170.785 134.386,171.500 134.391 C 172.530 134.398,172.800 134.566,172.800 135.200 C 172.800 135.640,172.659 136.000,172.486 136.000 C 172.314 136.000,171.865 136.520,171.490 137.155 C 171.115 137.791,170.026 139.366,169.070 140.655 C 166.498 144.126,160.617 152.143,157.200 156.835 C 155.550 159.101,153.380 162.045,152.378 163.378 C 151.376 164.710,149.218 167.690,147.583 170.000 C 145.949 172.310,144.069 174.939,143.406 175.842 C 142.743 176.745,141.390 178.626,140.400 180.023 C 139.410 181.419,136.125 185.900,133.100 189.981 C 130.075 194.061,127.330 197.967,127.000 198.660 C 126.311 200.109,126.112 213.375,126.773 213.783 C 127.120 213.998,213.649 214.110,213.816 213.897 C 213.857 213.843,214.013 208.805,214.161 202.700 L 214.432 191.600 190.016 191.600 C 163.178 191.600,164.514 191.732,166.421 189.263 C 166.873 188.678,168.088 187.016,169.121 185.570 C 173.524 179.406,174.702 177.764,176.525 175.253 C 177.584 173.794,178.783 172.150,179.190 171.600 C 179.597 171.050,180.531 169.788,181.265 168.796 C 181.999 167.803,183.401 165.823,184.379 164.396 C 186.201 161.738,190.442 155.883,191.337 154.791 C 191.612 154.456,192.446 153.286,193.192 152.191 C 193.937 151.096,194.658 150.110,194.793 150.000 C 194.928 149.890,195.471 149.170,196.000 148.400 C 196.529 147.630,197.060 146.910,197.181 146.800 C 197.301 146.690,198.014 145.700,198.765 144.600 C 200.216 142.473,206.971 133.194,208.867 130.723 L 210.000 129.247 210.000 120.223 L 210.000 111.200 169.994 111.200 L 129.988 111.200 130.094 122.700 M91.800 235.075 C 90.480 235.389,88.770 235.792,88.000 235.971 C 83.439 237.032,77.298 240.133,73.400 243.343 C 49.232 263.245,54.825 304.810,83.200 316.168 C 86.545 317.507,91.372 318.821,97.400 320.035 C 100.700 320.700,105.020 321.617,107.000 322.073 C 108.980 322.529,111.320 323.040,112.200 323.207 C 114.012 323.553,117.425 324.296,119.800 324.862 C 122.017 325.391,124.670 325.971,126.800 326.394 C 129.814 326.991,130.865 327.220,134.400 328.048 C 139.261 329.186,140.827 329.536,142.300 329.816 L 143.600 330.064 143.600 321.511 L 143.600 312.959 140.500 312.451 C 138.795 312.172,136.590 311.792,135.600 311.606 C 134.610 311.420,132.450 311.045,130.800 310.773 C 126.750 310.104,126.755 310.136,130.220 306.766 C 142.064 295.243,145.642 281.063,141.365 262.600 C 138.171 248.811,125.576 238.170,108.480 234.816 C 105.432 234.218,94.703 234.384,91.800 235.075 M155.383 237.726 C 154.927 239.543,155.419 294.102,155.903 295.400 C 156.149 296.060,156.570 297.410,156.838 298.400 C 164.032 325.002,210.460 327.936,223.308 302.600 C 227.970 293.408,228.364 288.949,227.736 252.560 L 227.472 237.320 217.436 237.087 C 211.342 236.946,207.249 237.002,207.015 237.232 C 206.777 237.465,206.618 247.714,206.599 264.105 L 206.567 290.600 205.647 293.200 C 202.937 300.854,195.213 304.501,186.475 302.253 C 182.250 301.166,177.200 296.407,177.200 293.512 C 177.200 293.091,176.981 292.354,176.714 291.874 C 176.355 291.226,176.164 284.085,175.978 264.297 C 175.840 249.610,175.593 237.460,175.431 237.297 C 175.268 237.133,170.746 236.943,165.381 236.874 L 155.628 236.749 155.383 237.726 M106.343 251.420 C 126.270 257.338,126.208 295.274,106.261 301.428 C 91.615 305.947,79.559 294.353,79.614 275.800 C 79.667 257.900,91.579 247.036,106.343 251.420 " stroke="none" fill="#f9f9f9" fill-rule="evenodd"></path><path id="path1" d="M79.200 0.294 C 77.770 0.376,76.429 0.613,76.220 0.821 C 76.011 1.030,75.246 1.200,74.520 1.200 C 73.794 1.200,73.200 1.380,73.200 1.600 C 73.200 1.820,72.480 2.000,71.600 2.000 C 70.720 2.000,70.000 2.180,70.000 2.400 C 70.000 2.620,69.280 2.800,68.400 2.800 C 67.520 2.800,66.800 2.980,66.800 3.200 C 66.800 3.420,66.440 3.600,66.000 3.600 C 65.560 3.600,65.200 3.780,65.200 4.000 C 65.200 4.220,64.660 4.400,64.000 4.400 C 63.340 4.400,62.800 4.580,62.800 4.800 C 62.800 5.020,62.260 5.200,61.600 5.200 C 60.940 5.200,60.400 5.380,60.400 5.600 C 60.400 5.820,60.040 6.000,59.600 6.000 C 59.160 6.000,58.800 6.180,58.800 6.400 C 58.800 6.620,58.350 6.800,57.800 6.800 C 57.250 6.800,56.800 6.980,56.800 7.200 C 56.800 7.420,56.440 7.600,56.000 7.600 C 55.560 7.600,55.200 7.780,55.200 8.000 C 55.200 8.220,54.885 8.401,54.500 8.402 C 54.115 8.404,53.284 8.674,52.654 9.002 C 52.024 9.331,51.259 9.600,50.954 9.600 C 50.649 9.600,50.400 9.780,50.400 10.000 C 50.400 10.220,50.080 10.400,49.688 10.400 C 49.297 10.400,48.717 10.760,48.400 11.200 C 48.083 11.640,47.503 12.000,47.112 12.000 C 46.720 12.000,46.400 12.180,46.400 12.400 C 46.400 12.620,46.080 12.800,45.688 12.800 C 45.297 12.800,44.717 13.160,44.400 13.600 C 44.083 14.040,43.595 14.400,43.315 14.400 C 43.036 14.400,42.582 14.760,42.307 15.200 C 42.032 15.640,41.563 16.000,41.264 16.000 C 40.965 16.000,40.217 16.540,39.600 17.200 C 38.983 17.860,38.267 18.400,38.008 18.400 C 37.749 18.400,36.846 19.120,36.000 20.000 C 35.154 20.880,34.278 21.600,34.053 21.600 C 33.612 21.600,29.326 25.498,26.643 28.339 C 25.739 29.296,24.055 31.047,22.900 32.230 C 21.745 33.414,20.800 34.584,20.800 34.831 C 20.800 35.077,20.260 35.783,19.600 36.400 C 18.940 37.017,18.400 37.737,18.400 38.000 C 18.400 38.263,17.860 38.983,17.200 39.600 C 16.540 40.217,16.000 40.965,16.000 41.264 C 16.000 41.563,15.640 42.032,15.200 42.307 C 14.760 42.582,14.400 43.036,14.400 43.315 C 14.400 43.595,14.040 44.083,13.600 44.400 C 13.160 44.717,12.800 45.257,12.800 45.600 C 12.800 45.943,12.440 46.483,12.000 46.800 C 11.560 47.117,11.200 47.697,11.200 48.088 C 11.200 48.480,11.020 48.800,10.800 48.800 C 10.580 48.800,10.400 49.160,10.400 49.600 C 10.400 50.040,10.220 50.400,10.000 50.400 C 9.780 50.400,9.600 50.649,9.600 50.954 C 9.600 51.259,9.331 52.024,9.002 52.654 C 8.674 53.284,8.404 54.115,8.402 54.500 C 8.401 54.885,8.220 55.200,8.000 55.200 C 7.780 55.200,7.600 55.560,7.600 56.000 C 7.600 56.440,7.420 56.800,7.200 56.800 C 6.980 56.800,6.800 57.160,6.800 57.600 C 6.800 58.040,6.620 58.400,6.400 58.400 C 6.180 58.400,6.000 58.850,6.000 59.400 C 6.000 59.950,5.820 60.400,5.600 60.400 C 5.380 60.400,5.200 60.940,5.200 61.600 C 5.200 62.260,5.020 62.800,4.800 62.800 C 4.580 62.800,4.400 63.160,4.400 63.600 C 4.400 64.040,4.220 64.400,4.000 64.400 C 3.780 64.400,3.600 64.940,3.600 65.600 C 3.600 66.260,3.420 66.800,3.200 66.800 C 2.980 66.800,2.800 67.520,2.800 68.400 C 2.800 69.280,2.620 70.000,2.400 70.000 C 2.180 70.000,2.000 70.720,2.000 71.600 C 2.000 72.480,1.820 73.200,1.600 73.200 C 1.380 73.200,1.200 73.794,1.200 74.520 C 1.200 75.246,0.975 76.065,0.700 76.340 C -0.035 77.075,-0.035 321.255,0.700 321.500 C 0.999 321.600,1.200 322.376,1.200 323.433 C 1.200 324.405,1.380 325.200,1.600 325.200 C 1.820 325.200,2.000 325.920,2.000 326.800 C 2.000 327.680,2.180 328.400,2.400 328.400 C 2.620 328.400,2.800 329.120,2.800 330.000 C 2.800 330.880,2.980 331.600,3.200 331.600 C 3.420 331.600,3.600 332.140,3.600 332.800 C 3.600 333.460,3.780 334.000,4.000 334.000 C 4.220 334.000,4.400 334.540,4.400 335.200 C 4.400 335.860,4.580 336.400,4.800 336.400 C 5.020 336.400,5.200 336.940,5.200 337.600 C 5.200 338.260,5.380 338.800,5.600 338.800 C 5.820 338.800,6.000 339.124,6.000 339.520 C 6.000 340.414,6.894 342.393,7.300 342.397 C 7.465 342.399,7.600 342.760,7.600 343.200 C 7.600 343.640,7.764 344.000,7.965 344.000 C 8.166 344.000,8.451 344.720,8.600 345.600 C 8.749 346.480,9.034 347.200,9.235 347.200 C 9.436 347.200,9.600 347.560,9.600 348.000 C 9.600 348.440,9.780 348.800,10.000 348.800 C 10.220 348.800,10.400 349.160,10.400 349.600 C 10.400 350.040,10.580 350.400,10.800 350.400 C 11.020 350.400,11.200 350.720,11.200 351.112 C 11.200 351.503,11.560 352.083,12.000 352.400 C 12.440 352.717,12.800 353.297,12.800 353.688 C 12.800 354.080,12.980 354.400,13.200 354.400 C 13.420 354.400,13.600 354.636,13.600 354.925 C 13.600 355.213,13.960 355.836,14.400 356.308 C 14.840 356.780,15.200 357.282,15.200 357.423 C 15.200 357.564,15.740 358.183,16.400 358.800 C 17.060 359.417,17.600 360.137,17.600 360.400 C 17.600 360.663,18.140 361.383,18.800 362.000 C 19.460 362.617,20.000 363.330,20.000 363.586 C 20.000 363.842,20.900 364.929,22.000 366.000 C 23.100 367.071,24.000 368.156,24.000 368.411 C 24.000 369.054,30.081 375.192,30.722 375.197 C 31.009 375.198,32.304 376.280,33.600 377.600 C 34.896 378.920,36.163 380.000,36.417 380.000 C 36.671 380.000,37.383 380.540,38.000 381.200 C 38.617 381.860,39.337 382.400,39.600 382.400 C 39.863 382.400,40.583 382.940,41.200 383.600 C 41.817 384.260,42.519 384.800,42.760 384.800 C 43.002 384.800,43.200 384.950,43.200 385.132 C 43.200 385.315,43.695 385.719,44.300 386.030 C 44.905 386.340,45.691 386.911,46.047 387.297 C 46.403 387.684,46.988 388.000,47.347 388.000 C 47.706 388.000,48.000 388.180,48.000 388.400 C 48.000 388.620,48.360 388.800,48.800 388.800 C 49.240 388.800,49.600 388.980,49.600 389.200 C 49.600 389.420,49.960 389.600,50.400 389.600 C 50.840 389.600,51.200 389.751,51.200 389.936 C 51.200 390.384,52.795 391.088,54.564 391.420 C 55.354 391.568,56.000 391.849,56.000 392.045 C 56.000 392.240,56.360 392.400,56.800 392.400 C 57.240 392.400,57.600 392.546,57.600 392.725 C 57.600 392.904,58.230 393.298,59.000 393.600 C 59.770 393.902,60.400 394.296,60.400 394.475 C 60.400 394.654,60.940 394.800,61.600 394.800 C 62.260 394.800,62.800 394.980,62.800 395.200 C 62.800 395.420,63.340 395.600,64.000 395.600 C 64.660 395.600,65.200 395.780,65.200 396.000 C 65.200 396.220,65.740 396.400,66.400 396.400 C 67.060 396.400,67.600 396.580,67.600 396.800 C 67.600 397.020,68.320 397.200,69.200 397.200 C 70.080 397.200,70.800 397.380,70.800 397.600 C 70.800 397.820,71.520 398.000,72.400 398.000 C 73.280 398.000,74.000 398.180,74.000 398.400 C 74.000 398.620,74.795 398.800,75.767 398.800 C 76.824 398.800,77.600 399.001,77.700 399.300 C 77.945 400.036,320.455 400.036,320.700 399.300 C 320.806 398.982,321.656 398.800,323.033 398.800 C 324.225 398.800,325.200 398.620,325.200 398.400 C 325.200 398.180,325.920 398.000,326.800 398.000 C 327.680 398.000,328.400 397.820,328.400 397.600 C 328.400 397.380,328.940 397.200,329.600 397.200 C 330.260 397.200,330.800 397.020,330.800 396.800 C 330.800 396.580,331.520 396.400,332.400 396.400 C 333.280 396.400,334.000 396.220,334.000 396.000 C 334.000 395.780,334.540 395.600,335.200 395.600 C 335.860 395.600,336.400 395.420,336.400 395.200 C 336.400 394.980,336.940 394.800,337.600 394.800 C 338.260 394.800,338.800 394.620,338.800 394.400 C 338.800 394.180,339.124 394.000,339.520 394.000 C 340.414 394.000,342.393 393.106,342.397 392.700 C 342.399 392.535,342.760 392.400,343.200 392.400 C 343.640 392.400,344.000 392.236,344.000 392.035 C 344.000 391.834,344.720 391.549,345.600 391.400 C 346.480 391.251,347.200 390.966,347.200 390.765 C 347.200 390.564,347.560 390.400,348.000 390.400 C 348.440 390.400,348.800 390.220,348.800 390.000 C 348.800 389.780,349.160 389.600,349.600 389.600 C 350.040 389.600,350.400 389.420,350.400 389.200 C 350.400 388.980,350.720 388.800,351.112 388.800 C 351.503 388.800,352.083 388.440,352.400 388.000 C 352.717 387.560,353.297 387.200,353.688 387.200 C 354.080 387.200,354.400 387.020,354.400 386.800 C 354.400 386.580,354.636 386.400,354.925 386.400 C 355.213 386.400,355.836 386.040,356.308 385.600 C 356.780 385.160,357.282 384.800,357.423 384.800 C 357.564 384.800,358.183 384.260,358.800 383.600 C 359.417 382.940,360.169 382.400,360.472 382.400 C 360.775 382.400,361.283 382.040,361.600 381.600 C 361.917 381.160,362.419 380.800,362.714 380.800 C 363.010 380.800,364.129 379.900,365.200 378.800 C 366.271 377.700,367.385 376.795,367.674 376.789 C 368.343 376.776,376.800 368.286,376.800 367.628 C 376.800 367.358,377.520 366.446,378.400 365.600 C 379.280 364.754,380.000 363.851,380.000 363.592 C 380.000 363.333,380.540 362.617,381.200 362.000 C 381.860 361.383,382.400 360.663,382.400 360.400 C 382.400 360.137,382.940 359.417,383.600 358.800 C 384.260 358.183,384.800 357.481,384.800 357.240 C 384.800 356.998,384.980 356.800,385.200 356.800 C 385.420 356.800,385.600 356.480,385.600 356.088 C 385.600 355.697,385.960 355.117,386.400 354.800 C 386.840 354.483,387.200 353.943,387.200 353.600 C 387.200 353.257,387.560 352.717,388.000 352.400 C 388.440 352.083,388.800 351.503,388.800 351.112 C 388.800 350.720,388.980 350.400,389.200 350.400 C 389.420 350.400,389.600 350.040,389.600 349.600 C 389.600 349.160,389.780 348.800,390.000 348.800 C 390.220 348.800,390.400 348.551,390.400 348.246 C 390.400 347.941,390.669 347.176,390.998 346.546 C 391.326 345.916,391.596 345.085,391.598 344.700 C 391.599 344.315,391.780 344.000,392.000 344.000 C 392.220 344.000,392.400 343.640,392.400 343.200 C 392.400 342.760,392.580 342.400,392.800 342.400 C 393.020 342.400,393.200 341.950,393.200 341.400 C 393.200 340.850,393.380 340.400,393.600 340.400 C 393.820 340.400,394.000 339.860,394.000 339.200 C 394.000 338.540,394.180 338.000,394.400 338.000 C 394.620 338.000,394.800 337.460,394.800 336.800 C 394.800 336.140,394.980 335.600,395.200 335.600 C 395.420 335.600,395.600 335.060,395.600 334.400 C 395.600 333.740,395.780 333.200,396.000 333.200 C 396.220 333.200,396.400 332.480,396.400 331.600 C 396.400 330.720,396.580 330.000,396.800 330.000 C 397.020 330.000,397.200 329.280,397.200 328.400 C 397.200 327.520,397.380 326.800,397.600 326.800 C 397.820 326.800,398.000 326.001,398.000 325.024 C 398.000 324.047,398.180 323.136,398.400 323.000 C 398.620 322.864,398.800 321.428,398.800 319.810 C 398.800 317.811,398.960 316.813,399.300 316.700 C 399.699 316.567,399.800 292.288,399.800 197.087 C 399.800 102.063,399.698 77.538,399.300 77.140 C 399.025 76.865,398.800 76.046,398.800 75.320 C 398.800 74.594,398.620 74.000,398.400 74.000 C 398.180 74.000,398.000 73.280,398.000 72.400 C 398.000 71.520,397.820 70.800,397.600 70.800 C 397.380 70.800,397.200 70.080,397.200 69.200 C 397.200 68.320,397.020 67.600,396.800 67.600 C 396.580 67.600,396.400 67.060,396.400 66.400 C 396.400 65.740,396.220 65.200,396.000 65.200 C 395.780 65.200,395.600 64.660,395.600 64.000 C 395.600 63.340,395.420 62.800,395.200 62.800 C 394.980 62.800,394.800 62.260,394.800 61.600 C 394.800 60.940,394.620 60.400,394.400 60.400 C 394.180 60.400,394.000 60.040,394.000 59.600 C 394.000 59.160,393.820 58.800,393.600 58.800 C 393.380 58.800,393.200 58.530,393.200 58.200 C 393.200 57.870,393.020 57.600,392.800 57.600 C 392.580 57.600,392.400 57.060,392.400 56.400 C 392.400 55.740,392.240 55.200,392.045 55.200 C 391.849 55.200,391.577 54.602,391.440 53.870 C 391.302 53.139,390.832 52.156,390.395 51.687 C 389.958 51.217,389.600 50.556,389.600 50.217 C 389.600 49.878,389.420 49.600,389.200 49.600 C 388.980 49.600,388.800 49.240,388.800 48.800 C 388.800 48.360,388.620 48.000,388.400 48.000 C 388.180 48.000,388.000 47.640,388.000 47.200 C 388.000 46.760,387.820 46.400,387.600 46.400 C 387.380 46.400,387.200 46.164,387.200 45.875 C 387.200 45.587,386.840 44.964,386.400 44.492 C 385.960 44.020,385.600 43.466,385.600 43.262 C 385.600 43.057,385.062 42.465,384.404 41.945 C 383.746 41.425,383.206 40.725,383.204 40.388 C 383.202 40.052,382.840 39.517,382.400 39.200 C 381.960 38.883,381.600 38.381,381.600 38.086 C 381.600 37.790,380.700 36.671,379.600 35.600 C 378.500 34.529,377.600 33.454,377.600 33.213 C 377.600 32.971,377.015 32.175,376.300 31.444 C 375.585 30.713,374.265 29.324,373.367 28.358 C 371.054 25.867,368.053 23.200,367.563 23.200 C 367.335 23.200,366.271 22.300,365.200 21.200 C 364.129 20.100,363.042 19.200,362.786 19.200 C 362.530 19.200,361.817 18.660,361.200 18.000 C 360.583 17.340,359.831 16.800,359.528 16.800 C 359.225 16.800,358.717 16.440,358.400 16.000 C 358.083 15.560,357.633 15.200,357.400 15.200 C 357.167 15.200,356.717 14.840,356.400 14.400 C 356.083 13.960,355.543 13.600,355.200 13.600 C 354.857 13.600,354.317 13.240,354.000 12.800 C 353.683 12.360,353.103 12.000,352.712 12.000 C 352.320 12.000,352.000 11.820,352.000 11.600 C 352.000 11.380,351.640 11.200,351.200 11.200 C 350.760 11.200,350.400 11.020,350.400 10.800 C 350.400 10.580,350.040 10.400,349.600 10.400 C 349.160 10.400,348.800 10.220,348.800 10.000 C 348.800 9.780,348.440 9.600,348.000 9.600 C 347.560 9.600,347.200 9.436,347.200 9.235 C 347.200 9.034,346.480 8.749,345.600 8.600 C 344.720 8.451,344.000 8.166,344.000 7.965 C 344.000 7.764,343.640 7.600,343.200 7.600 C 342.760 7.600,342.399 7.465,342.397 7.300 C 342.393 6.894,340.414 6.000,339.520 6.000 C 339.124 6.000,338.800 5.820,338.800 5.600 C 338.800 5.380,338.440 5.200,338.000 5.200 C 337.560 5.200,337.200 5.020,337.200 4.800 C 337.200 4.580,336.660 4.400,336.000 4.400 C 335.340 4.400,334.800 4.220,334.800 4.000 C 334.800 3.780,334.260 3.600,333.600 3.600 C 332.940 3.600,332.400 3.420,332.400 3.200 C 332.400 2.980,331.680 2.800,330.800 2.800 C 329.920 2.800,329.200 2.620,329.200 2.400 C 329.200 2.180,328.480 2.000,327.600 2.000 C 326.720 2.000,326.000 1.820,326.000 1.600 C 326.000 1.380,325.205 1.200,324.233 1.200 C 323.176 1.200,322.400 0.999,322.300 0.700 C 322.144 0.232,87.195 -0.160,79.200 0.294 M97.188 67.978 C 97.738 69.005,97.555 97.438,96.996 97.884 C 96.778 98.058,88.770 98.110,79.200 98.000 L 61.800 97.800 61.695 83.002 C 61.637 74.862,61.677 67.977,61.782 67.702 C 62.155 66.731,96.665 67.000,97.188 67.978 M254.068 67.915 C 254.649 68.618,254.838 69.012,256.406 72.800 C 257.504 75.451,258.292 77.326,259.095 79.200 C 259.425 79.970,259.925 81.140,260.205 81.800 C 260.486 82.460,261.077 83.810,261.519 84.800 C 261.960 85.790,263.889 90.290,265.805 94.800 C 267.721 99.310,269.619 103.735,270.023 104.632 C 270.427 105.530,271.142 107.240,271.610 108.432 C 272.079 109.625,272.737 111.230,273.072 112.000 C 273.407 112.770,273.825 113.760,274.001 114.200 C 274.177 114.640,274.698 115.853,275.160 116.896 C 275.622 117.938,276.000 118.878,276.000 118.984 C 276.000 119.090,276.457 120.175,277.015 121.395 C 277.573 122.616,279.752 127.976,281.856 133.307 C 283.960 138.638,285.951 143.630,286.281 144.400 C 287.782 147.902,288.261 149.130,288.855 151.000 C 289.135 151.880,289.507 152.771,289.682 152.980 C 289.857 153.189,290.000 153.684,290.000 154.080 C 290.000 154.476,290.270 154.800,290.600 154.800 C 290.935 154.800,291.200 154.444,291.200 153.995 C 291.200 153.552,291.359 152.877,291.553 152.495 C 291.880 151.851,292.235 151.015,293.160 148.700 C 293.357 148.205,293.736 147.170,294.000 146.400 C 294.264 145.630,294.624 144.640,294.800 144.200 C 294.976 143.760,295.336 142.770,295.600 142.000 C 296.156 140.381,296.485 139.541,297.323 137.600 C 297.655 136.830,298.952 133.680,300.204 130.600 C 301.456 127.520,302.750 124.370,303.081 123.600 C 303.887 121.722,304.205 120.925,304.996 118.800 C 305.364 117.810,305.939 116.370,306.274 115.600 C 306.891 114.178,307.323 113.119,307.946 111.500 C 308.644 109.687,309.118 108.557,310.000 106.600 C 310.496 105.500,311.059 104.195,311.251 103.700 C 311.900 102.028,312.316 101.006,312.920 99.600 C 313.252 98.830,314.727 95.230,316.200 91.600 C 317.673 87.970,319.151 84.370,319.486 83.600 C 319.821 82.830,320.328 81.660,320.614 81.000 C 320.899 80.340,321.615 78.540,322.204 77.000 C 322.793 75.460,323.641 73.390,324.088 72.400 C 324.535 71.410,325.079 70.150,325.297 69.600 C 325.515 69.050,325.826 68.330,325.990 68.000 C 326.479 67.012,364.132 67.103,364.322 68.092 C 364.396 68.473,363.522 70.723,362.381 73.092 C 359.665 78.731,357.822 82.668,357.087 84.400 C 355.973 87.026,353.017 93.565,348.499 103.400 C 347.185 106.260,345.709 109.500,345.217 110.600 C 344.726 111.700,343.891 113.545,343.362 114.700 C 342.833 115.855,341.967 117.745,341.438 118.900 C 340.909 120.055,340.079 121.900,339.595 123.000 C 339.111 124.100,338.123 126.260,337.400 127.800 C 336.677 129.340,335.239 132.490,334.203 134.800 C 333.168 137.110,331.508 140.710,330.515 142.800 C 328.778 146.455,327.092 150.119,326.375 151.800 C 325.907 152.896,323.496 158.165,321.800 161.800 C 318.339 169.217,317.421 171.212,316.004 174.400 C 314.409 177.987,312.978 181.164,311.319 184.800 C 310.290 187.053,309.374 189.099,308.050 192.100 C 307.637 193.035,306.715 195.060,306.001 196.600 C 305.286 198.140,304.552 199.760,304.368 200.200 C 303.505 202.268,297.022 216.885,295.978 219.118 C 295.330 220.503,294.800 221.713,294.800 221.806 C 294.800 221.900,294.331 223.017,293.757 224.288 C 293.183 225.560,292.441 227.230,292.107 228.000 C 291.773 228.770,290.983 230.514,290.350 231.875 C 289.718 233.236,289.200 234.462,289.200 234.600 C 289.200 234.738,288.680 235.964,288.043 237.325 C 287.407 238.686,286.212 241.420,285.388 243.400 C 283.484 247.973,282.411 250.122,281.846 250.494 C 281.312 250.846,247.543 250.906,246.633 250.557 C 245.949 250.295,245.788 249.195,246.343 248.580 C 246.531 248.371,247.273 246.766,247.991 245.013 C 248.708 243.261,250.084 240.139,251.048 238.076 C 252.011 236.014,252.800 234.258,252.800 234.175 C 252.800 234.092,253.230 233.073,253.755 231.912 C 255.023 229.108,256.347 226.121,257.084 224.400 C 257.413 223.630,258.024 222.235,258.442 221.300 C 258.859 220.365,259.541 218.835,259.957 217.900 C 260.374 216.965,261.168 215.210,261.722 214.000 C 262.276 212.790,263.825 209.244,265.164 206.120 C 267.413 200.871,268.538 198.356,271.050 192.960 C 272.347 190.175,272.709 191.344,266.553 178.452 C 265.149 175.511,264.001 172.991,264.002 172.852 C 264.004 172.714,262.903 170.350,261.556 167.600 C 260.209 164.850,258.969 162.240,258.800 161.800 C 258.632 161.360,257.592 159.110,256.489 156.800 C 255.387 154.490,253.898 151.340,253.180 149.800 C 252.463 148.260,250.809 144.750,249.505 142.000 C 248.201 139.250,246.773 136.190,246.333 135.200 C 245.892 134.210,244.717 131.690,243.721 129.600 C 242.726 127.510,241.403 124.720,240.782 123.400 C 240.162 122.080,238.358 118.300,236.775 115.000 C 235.192 111.700,232.827 106.660,231.520 103.800 C 228.389 96.948,227.426 94.868,225.506 90.800 C 224.623 88.930,223.394 86.320,222.775 85.000 C 222.157 83.680,220.583 80.350,219.279 77.600 C 215.786 70.237,215.082 68.484,215.344 67.801 C 215.725 66.809,253.246 66.919,254.068 67.915 M96.932 110.300 C 97.259 110.847,97.406 214.190,97.081 214.693 C 96.832 215.076,93.001 215.141,79.881 214.984 C 70.596 214.873,62.685 214.787,62.300 214.791 C 61.580 214.800,61.150 110.984,61.867 110.267 C 62.237 109.897,96.711 109.929,96.932 110.300 M195.166 110.666 L 210.862 110.931 210.731 120.395 C 210.624 128.133,210.491 129.973,210.000 130.485 C 208.783 131.754,208.000 132.820,208.000 133.205 C 208.000 133.422,207.859 133.600,207.686 133.600 C 207.514 133.600,207.057 134.133,206.672 134.785 C 206.287 135.437,205.747 136.202,205.473 136.485 C 205.198 136.768,203.124 139.610,200.863 142.800 C 198.602 145.990,196.448 149.028,196.076 149.550 C 194.477 151.797,192.223 154.610,191.924 154.733 C 191.746 154.807,191.600 155.030,191.600 155.230 C 191.600 155.430,190.958 156.450,190.174 157.497 C 189.390 158.543,188.535 159.684,188.274 160.032 C 188.013 160.379,187.620 160.941,187.400 161.280 C 186.205 163.124,183.078 167.521,180.204 171.400 C 178.410 173.820,176.514 176.430,175.991 177.200 C 175.467 177.970,174.926 178.690,174.789 178.800 C 174.652 178.910,173.757 180.170,172.800 181.600 C 171.843 183.030,170.950 184.290,170.816 184.400 C 170.152 184.946,166.800 190.012,166.800 190.472 C 166.800 190.905,171.019 190.979,190.198 190.885 C 207.069 190.802,213.832 190.896,214.443 191.223 C 215.477 191.776,215.350 214.206,214.309 214.862 C 213.547 215.343,126.710 215.182,126.100 214.698 C 125.732 214.406,125.600 212.308,125.600 206.723 L 125.600 199.144 126.882 197.281 C 127.587 196.256,128.381 195.144,128.647 194.809 C 130.388 192.615,138.336 181.861,139.682 179.880 C 140.579 178.558,141.558 177.189,141.856 176.838 C 142.384 176.216,143.113 175.196,146.779 169.947 C 148.598 167.343,155.241 158.289,156.139 157.191 C 156.412 156.856,157.246 155.686,157.992 154.591 C 158.737 153.496,159.461 152.510,159.600 152.400 C 159.739 152.290,160.415 151.374,161.101 150.365 C 161.788 149.355,163.486 147.000,164.875 145.130 C 169.057 139.501,171.689 135.833,171.854 135.405 C 171.958 135.134,165.107 135.042,151.151 135.126 C 138.767 135.201,130.142 135.102,129.923 134.883 C 129.539 134.499,129.454 111.360,129.834 110.744 C 130.086 110.337,172.725 110.286,195.166 110.666 M112.200 234.785 C 117.609 236.175,124.438 239.113,126.643 241.000 C 128.114 242.258,128.835 242.800,129.038 242.800 C 130.540 242.800,140.000 254.879,140.000 256.797 C 140.000 257.024,140.336 257.972,140.748 258.904 C 143.374 264.860,144.559 276.572,143.268 283.800 C 142.993 285.340,142.665 287.187,142.540 287.904 C 142.414 288.621,142.151 289.306,141.956 289.427 C 141.760 289.548,141.600 289.999,141.600 290.429 C 141.600 290.859,141.440 291.523,141.244 291.905 C 141.048 292.287,140.467 293.500,139.953 294.600 C 137.769 299.274,132.989 305.685,129.782 308.242 C 127.953 309.700,128.024 309.888,130.500 310.139 C 131.655 310.256,133.590 310.528,134.800 310.744 C 136.010 310.960,138.423 311.339,140.162 311.587 C 145.184 312.303,144.800 311.512,144.800 321.138 C 144.800 331.799,145.119 331.255,139.600 329.999 C 138.830 329.824,137.210 329.464,136.000 329.200 C 134.790 328.936,133.080 328.548,132.200 328.338 C 129.977 327.808,127.326 327.228,125.200 326.807 C 124.210 326.611,122.590 326.249,121.600 326.003 C 120.610 325.757,118.990 325.378,118.000 325.160 C 116.310 324.788,115.239 324.567,110.800 323.675 C 107.814 323.076,103.078 321.974,101.772 321.575 C 101.096 321.369,100.154 321.200,99.677 321.200 C 98.789 321.200,98.013 321.037,91.800 319.548 C 76.039 315.771,64.365 305.972,60.413 293.200 C 60.107 292.210,59.731 291.220,59.578 291.000 C 59.425 290.780,59.181 289.970,59.035 289.200 C 58.888 288.430,58.563 286.720,58.310 285.400 C 57.712 282.266,57.710 270.418,58.307 267.600 C 58.564 266.390,58.891 264.813,59.033 264.095 C 59.176 263.377,59.451 262.692,59.646 262.571 C 59.841 262.451,60.000 261.985,60.000 261.535 C 60.000 261.086,60.697 259.230,61.549 257.411 C 67.469 244.779,79.042 236.316,93.565 233.998 C 97.442 233.380,108.555 233.849,112.200 234.785 M176.167 236.643 C 176.735 236.861,176.800 239.559,176.800 263.037 C 176.800 288.243,176.900 290.796,178.000 293.800 C 181.914 304.486,199.235 305.142,204.274 294.795 C 205.661 291.948,205.701 291.206,205.957 263.200 L 206.200 236.600 217.200 236.600 L 228.200 236.600 228.200 263.000 C 228.199 290.970,228.085 293.105,226.354 297.500 C 223.793 304.006,221.435 307.754,217.776 311.137 C 209.565 318.732,194.855 322.437,182.731 319.966 C 169.487 317.266,163.005 312.915,157.972 303.346 C 157.327 302.121,156.800 300.788,156.800 300.383 C 156.800 299.978,156.641 299.549,156.446 299.429 C 156.251 299.308,156.000 298.713,155.888 298.105 C 155.775 297.497,155.395 295.470,155.042 293.600 C 154.191 289.087,154.061 237.003,154.900 236.665 C 155.621 236.374,175.413 236.353,176.167 236.643 M95.400 251.792 C 79.567 255.276,74.592 283.087,87.442 296.283 C 95.360 304.415,110.528 302.651,116.116 292.949 C 118.847 288.207,119.529 286.188,120.219 280.800 C 122.648 261.837,111.097 248.337,95.400 251.792 " stroke="none" fill="#040404" fill-rule="evenodd"></path><path id="path2" d="M61.867 67.467 C 61.720 67.613,61.634 69.458,61.677 71.567 L 61.753 75.400 61.977 71.600 L 62.200 67.800 79.662 67.800 C 89.266 67.800,97.040 67.665,96.938 67.500 C 96.709 67.129,62.237 67.097,61.867 67.467 M215.350 67.787 C 215.226 68.110,215.217 68.605,215.331 68.887 C 215.444 69.169,215.551 68.997,215.568 68.504 L 215.600 67.608 234.100 67.500 L 252.600 67.392 234.087 67.296 C 218.125 67.213,215.544 67.281,215.350 67.787 M253.714 68.120 C 254.201 68.626,254.674 68.987,254.764 68.923 C 254.998 68.755,253.542 67.200,253.152 67.200 C 252.974 67.200,253.227 67.614,253.714 68.120 M326.080 67.680 C 325.816 67.944,325.600 68.434,325.600 68.769 C 325.600 69.194,325.788 69.110,326.223 68.489 L 326.845 67.600 345.423 67.600 C 365.941 67.600,364.539 67.393,363.363 70.251 C 363.012 71.103,362.894 71.620,363.099 71.400 C 363.770 70.681,364.496 68.428,364.258 67.807 C 363.948 67.000,326.884 66.876,326.080 67.680 M97.371 78.400 C 97.371 83.350,97.428 85.375,97.499 82.900 C 97.569 80.425,97.569 76.375,97.499 73.900 C 97.428 71.425,97.371 73.450,97.371 78.400 M216.434 71.400 C 216.434 71.620,216.778 72.430,217.200 73.200 C 217.622 73.970,217.966 74.420,217.966 74.200 C 217.966 73.980,217.622 73.170,217.200 72.400 C 216.778 71.630,216.434 71.180,216.434 71.400 M255.634 71.800 C 255.634 72.020,255.978 72.830,256.400 73.600 C 256.822 74.370,257.166 74.820,257.166 74.600 C 257.166 74.380,256.822 73.570,256.400 72.800 C 255.978 72.030,255.634 71.580,255.634 71.800 M218.109 75.100 C 218.195 75.265,218.574 76.075,218.952 76.900 C 219.329 77.725,219.730 78.400,219.842 78.400 C 219.955 78.400,219.977 78.265,219.891 78.100 C 219.805 77.935,219.426 77.125,219.048 76.300 C 218.671 75.475,218.270 74.800,218.158 74.800 C 218.045 74.800,218.023 74.935,218.109 75.100 M260.207 82.679 C 260.807 84.114,261.200 84.762,261.200 84.316 C 261.200 83.884,259.985 81.200,259.789 81.200 C 259.679 81.200,259.867 81.866,260.207 82.679 M319.231 84.100 C 319.039 84.595,318.506 85.945,318.047 87.100 C 317.587 88.255,317.304 89.200,317.416 89.200 C 317.528 89.200,317.777 88.795,317.969 88.300 C 318.161 87.805,318.694 86.455,319.153 85.300 C 319.613 84.145,319.896 83.200,319.784 83.200 C 319.672 83.200,319.423 83.605,319.231 84.100 M261.768 86.200 C 263.301 89.963,264.951 93.582,265.077 93.456 C 265.244 93.289,261.816 85.279,261.408 84.884 C 261.247 84.728,261.409 85.320,261.768 86.200 M61.782 92.499 L 61.800 97.800 74.800 97.808 L 87.800 97.816 74.912 97.703 L 62.023 97.589 61.893 92.394 L 61.764 87.199 61.782 92.499 M354.672 89.019 C 353.732 90.989,353.864 91.324,354.847 89.462 C 355.293 88.616,355.587 87.854,355.501 87.767 C 355.414 87.681,355.041 88.244,354.672 89.019 M97.272 95.480 C 97.220 96.986,97.007 97.673,96.500 97.968 C 96.115 98.192,96.003 98.381,96.251 98.388 C 97.166 98.413,97.644 97.238,97.495 95.331 L 97.344 93.400 97.272 95.480 M350.672 97.819 C 349.732 99.789,349.864 100.124,350.847 98.262 C 351.293 97.416,351.587 96.654,351.501 96.567 C 351.414 96.481,351.041 97.044,350.672 97.819 M266.400 96.884 C 266.400 97.316,267.615 100.000,267.811 100.000 C 267.921 100.000,267.733 99.334,267.393 98.521 C 266.793 97.086,266.400 96.438,266.400 96.884 M348.629 102.248 C 348.063 103.485,347.607 104.610,347.616 104.748 C 347.637 105.082,348.758 102.998,349.456 101.328 C 350.378 99.120,349.732 99.840,348.629 102.248 M230.434 101.400 C 230.434 101.620,230.778 102.430,231.200 103.200 C 231.622 103.970,231.966 104.420,231.966 104.200 C 231.966 103.980,231.622 103.170,231.200 102.400 C 230.778 101.630,230.434 101.180,230.434 101.400 M346.465 107.017 C 345.795 108.488,345.923 108.802,346.647 107.465 C 346.986 106.840,347.188 106.254,347.096 106.163 C 347.005 106.071,346.721 106.456,346.465 107.017 M232.820 106.462 C 232.785 106.923,236.104 113.629,236.280 113.453 C 236.374 113.359,235.638 111.689,234.645 109.741 C 233.653 107.794,232.831 106.318,232.820 106.462 M61.871 110.263 C 61.722 110.411,61.643 121.618,61.695 135.167 L 61.791 159.800 61.995 135.200 L 62.200 110.600 79.374 110.496 C 92.832 110.414,96.625 110.500,96.904 110.896 C 97.171 111.273,97.220 111.249,97.097 110.800 C 96.924 110.166,62.493 109.640,61.871 110.263 M129.862 110.700 C 129.693 110.972,151.269 110.969,179.400 110.693 C 185.340 110.634,176.666 110.545,160.124 110.493 C 143.582 110.442,129.964 110.535,129.862 110.700 M210.303 116.699 C 210.495 127.618,210.638 128.656,210.720 119.700 C 210.764 114.805,210.665 110.800,210.500 110.799 C 210.335 110.799,210.246 113.454,210.303 116.699 M344.400 111.284 C 344.400 111.404,344.128 112.154,343.795 112.951 C 343.462 113.748,343.279 114.400,343.389 114.400 C 343.706 114.400,344.833 111.500,344.605 111.272 C 344.492 111.159,344.400 111.165,344.400 111.284 M305.058 118.504 C 304.128 120.940,304.280 121.404,305.236 119.047 C 305.672 117.973,305.958 117.024,305.872 116.938 C 305.786 116.852,305.420 117.557,305.058 118.504 M238.818 118.851 C 238.780 119.380,240.057 122.076,240.252 121.881 C 240.365 121.768,240.093 120.984,239.647 120.138 C 239.200 119.292,238.827 118.713,238.818 118.851 M277.407 123.079 C 278.007 124.514,278.400 125.162,278.400 124.716 C 278.400 124.284,277.185 121.600,276.989 121.600 C 276.879 121.600,277.067 122.266,277.407 123.079 M302.838 124.100 C 302.649 124.595,302.204 125.697,301.848 126.549 C 301.144 128.231,301.009 128.967,301.585 127.985 C 302.191 126.949,303.601 123.200,303.384 123.200 C 303.272 123.200,303.026 123.605,302.838 124.100 M278.550 125.800 C 279.507 128.558,284.168 139.965,284.289 139.845 C 284.454 139.679,278.853 125.511,278.500 125.200 C 278.375 125.090,278.397 125.360,278.550 125.800 M334.272 133.819 C 333.332 135.789,333.464 136.124,334.447 134.262 C 334.893 133.416,335.187 132.654,335.101 132.567 C 335.014 132.481,334.641 133.044,334.272 133.819 M129.967 134.926 C 130.146 135.105,139.676 135.195,151.146 135.126 C 162.616 135.057,172.000 135.121,172.000 135.269 C 172.000 135.417,171.586 136.047,171.080 136.669 C 169.732 138.324,166.986 142.267,167.506 141.800 C 168.331 141.059,172.400 135.406,172.400 135.001 C 172.400 134.738,165.049 134.600,151.021 134.600 C 139.262 134.600,129.787 134.747,129.967 134.926 M332.600 137.461 C 332.264 138.265,332.082 139.015,332.195 139.128 C 332.308 139.241,332.400 139.235,332.400 139.116 C 332.400 138.996,332.672 138.246,333.005 137.449 C 333.338 136.652,333.521 136.000,333.411 136.000 C 333.301 136.000,332.936 136.658,332.600 137.461 M203.315 138.900 C 201.581 141.167,200.666 142.520,201.009 142.313 C 201.481 142.027,204.137 138.400,203.874 138.400 C 203.777 138.400,203.526 138.625,203.315 138.900 M330.952 141.100 C 330.574 141.925,330.195 142.735,330.109 142.900 C 330.023 143.065,330.045 143.200,330.158 143.200 C 330.270 143.200,330.671 142.525,331.048 141.700 C 331.426 140.875,331.805 140.065,331.891 139.900 C 331.977 139.735,331.955 139.600,331.842 139.600 C 331.730 139.600,331.329 140.275,330.952 141.100 M250.038 143.000 C 250.038 143.220,250.561 144.390,251.200 145.600 C 251.839 146.810,252.362 147.620,252.362 147.400 C 252.362 147.180,251.839 146.010,251.200 144.800 C 250.561 143.590,250.038 142.780,250.038 143.000 M164.975 145.068 C 164.359 145.876,164.059 146.411,164.309 146.256 C 164.821 145.940,166.553 143.600,166.275 143.600 C 166.176 143.600,165.591 144.261,164.975 145.068 M197.628 146.800 C 196.508 148.340,195.728 149.592,195.896 149.583 C 196.213 149.565,200.144 144.000,199.839 144.000 C 199.743 144.000,198.748 145.260,197.628 146.800 M328.255 146.655 C 327.876 147.449,327.653 148.186,327.759 148.293 C 327.866 148.399,328.236 147.809,328.582 146.982 C 329.398 145.029,329.149 144.780,328.255 146.655 M163.129 147.500 C 162.088 148.724,160.628 150.954,161.030 150.705 C 161.477 150.429,164.132 146.800,163.887 146.800 C 163.797 146.800,163.456 147.115,163.129 147.500 M194.375 151.288 C 192.657 153.556,192.305 154.241,193.599 152.800 C 194.797 151.466,195.786 150.000,195.489 150.000 C 195.413 150.000,194.912 150.579,194.375 151.288 M96.934 153.200 C 96.934 154.850,97.005 155.525,97.091 154.700 C 97.178 153.875,97.178 152.525,97.091 151.700 C 97.005 150.875,96.934 151.550,96.934 153.200 M254.402 152.239 C 254.400 152.737,255.576 155.200,255.817 155.200 C 256.012 155.200,255.613 154.128,254.924 152.800 C 254.638 152.250,254.404 151.997,254.402 152.239 M158.097 154.407 C 156.412 156.985,156.708 156.980,158.562 154.400 C 159.352 153.300,159.864 152.403,159.699 152.407 C 159.535 152.411,158.814 153.311,158.097 154.407 M325.055 153.855 C 324.676 154.649,324.453 155.386,324.559 155.493 C 324.666 155.599,325.036 155.009,325.382 154.182 C 326.198 152.229,325.949 151.980,325.055 153.855 M190.606 156.288 L 189.904 157.400 190.830 156.511 C 191.339 156.022,191.655 155.522,191.532 155.399 C 191.409 155.276,190.992 155.676,190.606 156.288 M323.078 158.220 C 321.609 161.214,321.745 161.569,323.246 158.660 C 323.910 157.373,324.386 156.253,324.304 156.171 C 324.223 156.089,323.671 157.011,323.078 158.220 M155.296 158.205 C 154.132 160.003,154.400 160.000,155.773 158.200 C 156.360 157.430,156.697 156.802,156.520 156.805 C 156.344 156.808,155.793 157.438,155.296 158.205 M189.144 158.300 C 187.852 159.860,187.519 160.400,187.851 160.395 C 188.043 160.392,188.607 159.762,189.104 158.995 C 190.072 157.501,190.092 157.156,189.144 158.300 M152.941 161.500 C 152.336 162.325,151.562 163.346,151.221 163.769 C 150.879 164.192,150.808 164.416,151.063 164.268 C 151.571 163.973,154.509 160.000,154.220 160.000 C 154.121 160.000,153.546 160.675,152.941 161.500 M186.606 161.888 L 185.904 163.000 186.830 162.111 C 187.339 161.622,187.655 161.122,187.532 160.999 C 187.409 160.876,186.992 161.276,186.606 161.888 M183.366 166.500 C 182.537 167.655,180.893 169.905,179.713 171.500 C 178.534 173.095,177.659 174.400,177.769 174.400 C 177.879 174.400,179.200 172.735,180.705 170.700 C 184.288 165.856,185.296 164.400,185.065 164.400 C 184.960 164.400,184.196 165.345,183.366 166.500 M150.115 165.300 C 148.381 167.567,147.466 168.920,147.809 168.713 C 148.281 168.427,150.937 164.800,150.674 164.800 C 150.577 164.800,150.326 165.025,150.115 165.300 M145.129 172.300 C 144.178 173.418,142.728 175.600,142.935 175.600 C 143.040 175.600,143.772 174.700,144.562 173.600 C 145.985 171.619,146.277 170.950,145.129 172.300 M316.200 173.061 C 315.864 173.865,315.682 174.615,315.795 174.728 C 315.908 174.841,316.000 174.835,316.000 174.716 C 316.000 174.596,316.272 173.846,316.605 173.049 C 316.938 172.252,317.121 171.600,317.011 171.600 C 316.901 171.600,316.536 172.258,316.200 173.061 M264.019 173.100 C 264.045 173.509,266.357 177.864,266.381 177.548 C 266.409 177.178,264.371 172.800,264.171 172.800 C 264.077 172.800,264.008 172.935,264.019 173.100 M314.600 176.661 C 314.264 177.465,314.082 178.215,314.195 178.328 C 314.308 178.441,314.400 178.435,314.400 178.316 C 314.400 178.196,314.672 177.446,315.005 176.649 C 315.338 175.852,315.521 175.200,315.411 175.200 C 315.301 175.200,314.936 175.858,314.600 176.661 M175.427 177.400 C 174.840 178.170,174.503 178.798,174.680 178.795 C 174.856 178.792,175.407 178.162,175.904 177.395 C 177.068 175.597,176.800 175.600,175.427 177.400 M140.097 179.207 C 138.412 181.785,138.708 181.780,140.562 179.200 C 141.352 178.100,141.864 177.203,141.699 177.207 C 141.535 177.211,140.814 178.111,140.097 179.207 M312.400 181.284 C 312.400 181.404,312.128 182.154,311.795 182.951 C 311.462 183.748,311.279 184.400,311.389 184.400 C 311.706 184.400,312.833 181.500,312.605 181.272 C 312.492 181.159,312.400 181.165,312.400 181.284 M171.427 183.000 C 170.840 183.770,170.503 184.398,170.680 184.395 C 170.856 184.392,171.407 183.762,171.904 182.995 C 173.068 181.197,172.800 181.200,171.427 183.000 M268.400 182.172 C 268.400 182.266,269.219 184.108,270.220 186.265 C 271.451 188.917,271.972 190.512,271.831 191.193 C 271.626 192.178,271.631 192.181,272.069 191.306 C 272.449 190.548,272.222 189.767,270.593 186.206 C 268.885 182.471,268.400 181.579,268.400 182.172 M133.967 187.700 C 131.936 190.395,130.101 192.825,129.889 193.100 C 129.676 193.375,129.604 193.600,129.728 193.600 C 129.852 193.600,131.526 191.485,133.447 188.900 C 135.369 186.315,137.207 183.885,137.533 183.500 C 137.858 183.115,138.019 182.800,137.891 182.800 C 137.764 182.800,135.998 185.005,133.967 187.700 M167.203 188.860 C 165.940 190.603,165.735 191.200,166.400 191.200 C 166.620 191.200,166.800 190.902,166.800 190.538 C 166.800 190.174,167.259 189.274,167.820 188.538 C 168.382 187.802,168.743 187.200,168.623 187.200 C 168.503 187.200,167.864 187.947,167.203 188.860 M179.700 191.100 C 186.025 191.162,196.375 191.162,202.700 191.100 C 209.025 191.038,203.850 190.987,191.200 190.987 C 178.550 190.987,173.375 191.038,179.700 191.100 M214.799 198.319 L 214.998 205.400 215.109 198.630 C 215.170 194.906,215.080 191.720,214.910 191.549 C 214.739 191.378,214.690 194.424,214.799 198.319 M61.693 204.268 L 61.600 214.736 62.829 215.006 C 63.504 215.155,64.141 215.193,64.242 215.091 C 64.344 214.989,63.885 214.797,63.221 214.664 L 62.014 214.423 61.900 204.111 L 61.786 193.800 61.693 204.268 M97.372 203.000 C 97.372 208.060,97.429 210.075,97.499 207.477 C 97.569 204.880,97.568 200.740,97.498 198.277 C 97.428 195.815,97.371 197.940,97.372 203.000 M125.867 198.667 C 125.362 199.172,125.561 214.201,126.080 214.720 C 126.436 215.076,129.619 215.177,138.380 215.112 L 150.200 215.023 138.200 214.797 C 131.600 214.672,126.148 214.532,126.084 214.485 C 126.020 214.438,126.020 210.800,126.084 206.400 C 126.148 201.999,126.185 198.399,126.167 198.400 C 126.148 198.400,126.013 198.520,125.867 198.667 M267.872 199.819 C 266.932 201.789,267.064 202.124,268.047 200.262 C 268.493 199.416,268.787 198.654,268.701 198.567 C 268.614 198.481,268.241 199.044,267.872 199.819 M300.623 207.806 C 299.760 209.872,299.874 210.106,300.847 208.262 C 301.293 207.416,301.565 206.632,301.452 206.519 C 301.339 206.406,300.966 206.985,300.623 207.806 M299.000 211.461 C 298.664 212.265,298.482 213.015,298.595 213.128 C 298.708 213.241,298.800 213.235,298.800 213.116 C 298.800 212.996,299.072 212.246,299.405 211.449 C 299.738 210.652,299.921 210.000,299.811 210.000 C 299.701 210.000,299.336 210.658,299.000 211.461 M97.013 213.960 C 96.766 214.736,96.401 214.787,90.276 214.901 L 83.800 215.021 90.286 215.111 C 96.498 215.196,96.791 215.165,97.218 214.366 C 97.464 213.907,97.577 213.443,97.469 213.336 C 97.361 213.228,97.156 213.509,97.013 213.960 M214.156 214.404 C 213.913 214.647,204.411 214.834,188.983 214.900 L 164.200 215.006 189.000 215.097 C 211.565 215.180,215.578 215.044,214.762 214.228 C 214.643 214.110,214.371 214.189,214.156 214.404 M297.600 214.484 C 297.600 214.604,297.328 215.354,296.995 216.151 C 296.662 216.948,296.479 217.600,296.589 217.600 C 296.906 217.600,298.033 214.700,297.805 214.472 C 297.692 214.359,297.600 214.365,297.600 214.484 M295.472 219.419 C 294.532 221.389,294.664 221.724,295.647 219.862 C 296.093 219.016,296.387 218.254,296.301 218.167 C 296.214 218.081,295.841 218.644,295.472 219.419 M294.400 221.684 C 294.400 221.804,294.128 222.554,293.795 223.351 C 293.462 224.148,293.279 224.800,293.389 224.800 C 293.706 224.800,294.833 221.900,294.605 221.672 C 294.492 221.559,294.400 221.565,294.400 221.684 M256.623 225.406 C 255.760 227.472,255.874 227.706,256.847 225.862 C 257.293 225.016,257.565 224.232,257.452 224.119 C 257.339 224.006,256.966 224.585,256.623 225.406 M253.400 232.661 C 253.064 233.465,252.882 234.215,252.995 234.328 C 253.108 234.441,253.200 234.435,253.200 234.316 C 253.200 234.196,253.472 233.446,253.805 232.649 C 254.138 231.852,254.321 231.200,254.211 231.200 C 254.101 231.200,253.736 231.858,253.400 232.661 M96.500 233.887 C 97.105 233.978,98.095 233.978,98.700 233.887 C 99.305 233.795,98.810 233.720,97.600 233.720 C 96.390 233.720,95.895 233.795,96.500 233.887 M101.633 233.752 C 101.725 233.836,103.600 234.001,105.800 234.118 C 108.691 234.273,109.190 234.241,107.600 234.006 C 105.278 233.661,101.351 233.494,101.633 233.752 M93.105 234.283 C 93.602 234.379,94.322 234.375,94.705 234.275 C 95.087 234.175,94.680 234.096,93.800 234.101 C 92.920 234.105,92.607 234.187,93.105 234.283 M89.600 234.800 C 88.808 235.054,88.767 235.120,89.400 235.120 C 89.840 235.120,90.650 234.976,91.200 234.800 C 91.992 234.546,92.033 234.480,91.400 234.480 C 90.960 234.480,90.150 234.624,89.600 234.800 M110.033 234.557 C 110.125 234.643,111.370 235.006,112.800 235.363 C 115.662 236.078,119.389 237.417,122.100 238.705 C 122.265 238.783,122.400 238.755,122.400 238.642 C 122.400 238.192,116.421 235.877,113.016 235.008 C 110.632 234.400,109.720 234.262,110.033 234.557 M83.723 236.545 C 80.901 237.735,80.449 238.288,83.200 237.186 C 84.410 236.701,85.850 236.161,86.400 235.986 C 87.190 235.736,87.232 235.669,86.600 235.669 C 86.160 235.669,84.865 236.064,83.723 236.545 M251.665 236.617 C 250.995 238.088,251.123 238.402,251.847 237.065 C 252.186 236.440,252.388 235.854,252.296 235.763 C 252.205 235.671,251.921 236.056,251.665 236.617 M154.900 236.665 C 154.349 236.887,154.183 289.114,154.723 292.163 C 154.875 293.022,155.000 280.962,155.000 265.363 L 155.000 237.000 165.600 237.000 L 176.200 237.000 176.404 263.000 L 176.609 289.000 176.704 262.943 C 176.790 239.495,176.737 236.861,176.167 236.643 C 175.413 236.353,155.621 236.374,154.900 236.665 M206.186 236.894 C 206.080 237.172,206.041 248.740,206.099 262.600 L 206.206 287.800 206.303 262.300 L 206.400 236.800 217.216 236.800 L 228.032 236.800 227.916 263.804 C 227.852 278.656,227.936 290.281,228.103 289.637 C 228.270 288.993,228.360 276.796,228.303 262.533 L 228.200 236.600 217.290 236.494 C 208.778 236.411,206.337 236.498,206.186 236.894 M78.500 239.026 C 76.171 240.422,76.342 240.696,78.700 239.346 C 80.972 238.045,81.035 237.999,80.567 238.004 C 80.365 238.006,79.435 238.466,78.500 239.026 M249.600 240.884 C 249.600 241.004,249.328 241.754,248.995 242.551 C 248.662 243.348,248.479 244.000,248.589 244.000 C 248.906 244.000,250.033 241.100,249.805 240.872 C 249.692 240.759,249.600 240.765,249.600 240.884 M132.009 245.759 C 133.004 246.882,134.221 248.322,134.714 248.961 C 135.208 249.600,135.699 250.034,135.807 249.926 C 135.915 249.819,134.697 248.378,133.101 246.725 C 131.506 245.071,131.014 244.637,132.009 245.759 M69.201 246.198 C 68.686 246.748,68.339 247.264,68.432 247.346 C 68.524 247.428,69.019 246.978,69.530 246.347 C 70.676 244.935,70.474 244.844,69.201 246.198 M283.472 247.019 C 282.532 248.989,282.664 249.324,283.647 247.462 C 284.093 246.616,284.387 245.854,284.301 245.767 C 284.214 245.681,283.841 246.244,283.472 247.019 M66.770 248.962 C 64.850 251.269,62.113 255.600,62.576 255.600 C 62.688 255.600,63.053 255.071,63.388 254.424 C 63.722 253.777,64.905 252.046,66.017 250.577 C 68.103 247.821,68.591 246.774,66.770 248.962 M246.267 248.667 C 245.772 249.161,245.995 250.313,246.633 250.557 C 248.246 251.176,281.528 250.815,282.171 250.171 C 283.048 249.295,282.961 248.930,282.069 249.738 C 281.412 250.332,279.602 250.399,264.369 250.394 C 247.535 250.388,246.055 250.276,246.529 249.040 C 246.791 248.359,246.701 248.232,246.267 248.667 M96.876 251.140 C 96.368 251.283,97.864 251.400,100.200 251.400 C 102.536 251.400,104.032 251.283,103.524 251.140 C 103.016 250.997,101.520 250.880,100.200 250.880 C 98.880 250.880,97.384 250.997,96.876 251.140 M93.200 252.018 C 92.762 252.315,92.924 252.352,93.800 252.156 C 95.271 251.827,95.590 251.598,94.567 251.606 C 94.145 251.609,93.530 251.795,93.200 252.018 M137.630 253.000 C 138.124 253.880,138.700 254.780,138.910 255.000 C 139.509 255.628,138.139 253.094,137.396 252.200 C 137.030 251.760,137.135 252.120,137.630 253.000 M107.633 252.549 C 108.045 252.917,110.400 254.000,110.400 253.821 C 110.400 253.590,108.182 252.400,107.753 252.400 C 107.596 252.400,107.542 252.467,107.633 252.549 M87.653 255.448 C 86.723 256.244,86.034 256.967,86.122 257.055 C 86.210 257.143,87.074 256.492,88.041 255.608 C 90.230 253.606,89.943 253.488,87.653 255.448 M113.778 256.800 C 116.404 259.756,116.674 260.009,115.700 258.600 C 115.243 257.940,114.184 256.770,113.347 256.000 C 112.130 254.882,112.217 255.042,113.778 256.800 M61.472 257.419 C 60.532 259.389,60.664 259.724,61.647 257.862 C 62.093 257.016,62.387 256.254,62.301 256.167 C 62.214 256.081,61.841 256.644,61.472 257.419 M84.214 259.435 C 83.841 260.004,83.605 260.538,83.689 260.622 C 83.773 260.707,84.158 260.241,84.544 259.588 C 85.406 258.128,85.148 258.009,84.214 259.435 M60.200 260.400 C 60.050 260.873,60.017 261.350,60.127 261.460 C 60.237 261.570,60.450 261.273,60.600 260.800 C 60.750 260.327,60.783 259.850,60.673 259.740 C 60.563 259.630,60.350 259.927,60.200 260.400 M140.828 259.876 C 140.918 260.915,141.544 261.796,141.572 260.924 C 141.587 260.442,141.420 259.936,141.200 259.800 C 140.980 259.664,140.813 259.698,140.828 259.876 M117.259 261.700 C 117.741 262.635,118.556 264.570,119.071 266.000 C 119.611 267.499,119.902 268.007,119.759 267.200 C 119.493 265.698,117.007 260.000,116.618 260.000 C 116.489 260.000,116.778 260.765,117.259 261.700 M141.844 263.000 C 142.173 264.471,142.402 264.790,142.394 263.767 C 142.391 263.345,142.205 262.730,141.982 262.400 C 141.685 261.962,141.648 262.124,141.844 263.000 M58.673 265.353 C 58.523 265.745,58.411 266.366,58.425 266.733 C 58.442 267.175,58.581 267.074,58.837 266.434 C 59.049 265.903,59.161 265.282,59.085 265.054 C 59.009 264.827,58.824 264.961,58.673 265.353 M142.638 267.000 C 142.970 268.984,143.202 269.304,143.194 267.767 C 143.191 267.125,143.004 266.330,142.779 266.000 C 142.486 265.570,142.446 265.854,142.638 267.000 M80.678 268.081 C 80.558 268.587,80.365 270.080,80.249 271.400 C 80.062 273.538,80.101 273.453,80.603 270.617 C 81.127 267.663,81.176 265.986,80.678 268.081 M57.856 269.684 C 57.721 270.188,57.634 271.680,57.661 273.000 C 57.711 275.374,57.715 275.365,58.018 272.200 C 58.334 268.897,58.282 268.094,57.856 269.684 M120.277 271.800 C 120.398 273.560,120.565 275.075,120.649 275.167 C 120.919 275.464,120.750 272.250,120.399 270.400 C 120.142 269.047,120.112 269.394,120.277 271.800 M143.400 276.403 C 143.400 279.728,143.517 282.033,143.660 281.524 C 143.803 281.016,143.920 278.710,143.920 276.400 C 143.920 274.090,143.803 271.785,143.660 271.279 C 143.517 270.772,143.400 273.078,143.400 276.403 M57.660 279.400 C 57.658 281.160,57.802 282.960,57.980 283.400 C 58.162 283.850,58.223 282.627,58.119 280.600 C 57.879 275.920,57.664 275.359,57.660 279.400 M120.212 280.612 C 120.055 282.288,120.016 283.750,120.126 283.860 C 120.236 283.970,120.455 282.688,120.612 281.012 C 120.769 279.336,120.807 277.874,120.697 277.764 C 120.587 277.654,120.369 278.936,120.212 280.612 M80.069 279.600 C 80.056 280.150,80.195 281.320,80.377 282.200 C 80.589 283.226,80.716 283.441,80.731 282.800 C 80.744 282.250,80.605 281.080,80.423 280.200 C 80.211 279.174,80.084 278.959,80.069 279.600 M142.854 284.200 C 142.819 284.640,142.689 285.450,142.567 286.000 C 142.375 286.863,142.407 286.903,142.798 286.290 C 143.047 285.899,143.177 285.089,143.086 284.490 C 142.978 283.779,142.897 283.679,142.854 284.200 M118.943 287.015 C 118.482 288.427,118.235 289.502,118.394 289.404 C 118.748 289.185,120.149 284.816,119.934 284.601 C 119.850 284.516,119.403 285.602,118.943 287.015 M81.214 285.674 C 81.197 286.480,83.237 291.296,83.489 291.044 C 83.586 290.948,83.443 290.454,83.172 289.948 C 82.901 289.442,82.353 288.122,81.954 287.014 C 81.555 285.906,81.222 285.303,81.214 285.674 M58.406 286.433 C 58.409 286.965,58.589 287.670,58.806 288.000 C 59.082 288.422,59.123 288.185,58.942 287.200 C 58.625 285.475,58.398 285.149,58.406 286.433 M142.046 287.867 C 142.021 288.124,141.884 288.664,141.741 289.067 C 141.540 289.636,141.594 289.697,141.979 289.342 C 142.252 289.091,142.389 288.551,142.284 288.142 C 142.179 287.734,142.072 287.610,142.046 287.867 M205.378 290.578 C 205.227 291.381,205.194 292.127,205.304 292.237 C 205.414 292.347,205.627 291.781,205.778 290.978 C 205.928 290.175,205.962 289.428,205.852 289.318 C 205.742 289.208,205.528 289.775,205.378 290.578 M176.868 290.400 C 176.888 291.439,177.518 293.146,177.532 292.200 C 177.538 291.760,177.389 291.040,177.200 290.600 C 176.989 290.110,176.861 290.032,176.868 290.400 M83.600 291.848 C 83.600 292.058,84.144 292.853,84.810 293.615 L 86.019 295.000 84.987 293.410 C 83.764 291.529,83.600 291.344,83.600 291.848 M116.480 292.080 C 116.216 292.344,116.000 292.739,116.000 292.958 C 116.000 293.177,115.505 293.905,114.900 294.577 L 113.800 295.797 114.938 294.799 C 115.564 294.249,116.334 293.305,116.648 292.700 C 117.271 291.504,117.225 291.335,116.480 292.080 M227.254 292.600 C 227.219 293.040,227.089 293.850,226.967 294.400 C 226.775 295.263,226.807 295.303,227.198 294.690 C 227.447 294.299,227.577 293.489,227.486 292.890 C 227.378 292.179,227.297 292.079,227.254 292.600 M204.178 294.990 C 203.815 295.755,202.780 297.240,201.878 298.290 C 200.924 299.400,200.708 299.781,201.361 299.200 C 202.555 298.138,204.496 295.465,204.920 294.300 C 205.364 293.079,204.864 293.545,204.178 294.990 M155.228 294.833 C 155.244 295.365,155.419 296.160,155.619 296.600 C 155.871 297.158,155.907 296.915,155.738 295.800 C 155.455 293.943,155.187 293.436,155.228 294.833 M87.374 296.693 C 88.240 297.624,89.035 298.299,89.141 298.193 C 89.247 298.087,89.256 297.955,89.162 297.900 C 89.068 297.845,88.273 297.170,87.396 296.401 L 85.800 295.001 87.374 296.693 M178.718 296.200 C 179.947 298.436,184.016 301.600,185.663 301.600 C 185.935 301.600,185.226 301.136,184.087 300.569 C 182.949 300.001,181.176 298.606,180.148 297.469 C 179.120 296.331,178.476 295.760,178.718 296.200 M226.446 295.867 C 226.421 296.124,226.284 296.664,226.141 297.067 C 225.940 297.636,225.994 297.697,226.379 297.342 C 226.652 297.091,226.789 296.551,226.684 296.142 C 226.579 295.734,226.472 295.610,226.446 295.867 M112.175 297.300 L 111.000 298.600 112.300 297.425 C 113.512 296.330,113.784 296.000,113.475 296.000 C 113.406 296.000,112.821 296.585,112.175 297.300 M137.142 299.100 C 136.634 299.925,134.786 302.310,133.036 304.400 C 131.285 306.490,130.154 307.955,130.521 307.656 C 132.400 306.124,138.965 297.600,138.265 297.600 C 138.155 297.600,137.650 298.275,137.142 299.100 M63.641 300.100 C 65.365 303.410,70.164 308.782,73.800 311.472 C 75.120 312.448,75.480 312.657,74.600 311.935 C 71.333 309.255,66.908 304.518,65.224 301.900 C 63.513 299.238,62.725 298.343,63.641 300.100 M107.800 300.022 C 106.920 300.438,106.434 300.784,106.720 300.790 C 107.302 300.801,109.600 299.684,109.600 299.390 C 109.600 299.156,109.718 299.114,107.800 300.022 M198.200 300.822 C 197.320 301.238,196.834 301.584,197.120 301.590 C 197.702 301.601,200.000 300.484,200.000 300.190 C 200.000 299.956,200.118 299.914,198.200 300.822 M96.100 301.476 C 96.485 301.576,97.115 301.576,97.500 301.476 C 97.885 301.375,97.570 301.293,96.800 301.293 C 96.030 301.293,95.715 301.375,96.100 301.476 M99.300 301.887 C 99.905 301.978,100.895 301.978,101.500 301.887 C 102.105 301.795,101.610 301.720,100.400 301.720 C 99.190 301.720,98.695 301.795,99.300 301.887 M189.513 302.295 C 190.676 302.376,192.476 302.376,193.513 302.293 C 194.551 302.211,193.600 302.145,191.400 302.146 C 189.200 302.147,188.351 302.214,189.513 302.295 M221.797 305.900 C 220.964 307.165,220.633 307.889,221.062 307.509 C 221.817 306.841,223.824 303.600,223.482 303.600 C 223.389 303.600,222.631 304.635,221.797 305.900 M128.664 308.729 C 127.705 309.789,127.846 310.154,128.833 309.167 C 129.292 308.708,129.591 308.257,129.498 308.164 C 129.405 308.071,129.030 308.325,128.664 308.729 M218.778 309.900 L 217.400 311.400 218.900 310.022 C 220.296 308.738,220.584 308.400,220.278 308.400 C 220.212 308.400,219.537 309.075,218.778 309.900 M130.033 310.147 C 130.125 310.228,130.920 310.414,131.800 310.562 C 132.946 310.754,133.230 310.714,132.800 310.421 C 132.260 310.053,129.632 309.793,130.033 310.147 M134.833 310.947 C 134.925 311.028,135.720 311.204,136.600 311.338 C 137.715 311.507,137.958 311.471,137.400 311.219 C 136.632 310.871,134.490 310.644,134.833 310.947 M140.400 312.000 C 140.950 312.176,141.940 312.317,142.600 312.313 L 143.800 312.305 142.600 312.000 C 141.940 311.832,140.950 311.691,140.400 311.687 L 139.400 311.680 140.400 312.000 M214.814 313.240 C 214.052 313.879,212.308 314.983,210.939 315.692 C 209.570 316.402,208.511 317.044,208.586 317.119 C 208.800 317.333,212.015 315.620,213.981 314.245 C 214.960 313.560,215.945 312.875,216.169 312.722 C 216.393 312.569,216.492 312.361,216.388 312.261 C 216.285 312.160,215.576 312.601,214.814 313.240 M144.289 320.139 C 144.410 330.503,144.399 330.556,142.273 330.264 C 141.130 330.108,140.854 330.148,141.400 330.390 C 142.747 330.986,143.951 330.839,144.386 330.026 C 144.862 329.137,144.968 312.951,144.500 312.662 C 144.335 312.561,144.240 315.925,144.289 320.139 M166.000 313.400 C 166.745 313.950,167.455 314.399,167.578 314.398 C 167.955 314.395,165.424 312.430,165.022 312.414 C 164.815 312.406,165.255 312.850,166.000 313.400 M76.400 313.373 C 76.400 313.643,81.613 316.521,81.786 316.346 C 81.866 316.266,80.687 315.522,79.166 314.693 C 77.645 313.863,76.400 313.270,76.400 313.373 M172.400 316.966 C 172.950 317.260,173.850 317.612,174.400 317.749 C 174.950 317.886,174.680 317.652,173.800 317.229 C 171.990 316.358,170.868 316.148,172.400 316.966 M90.200 319.200 C 90.640 319.389,91.270 319.544,91.600 319.544 C 91.978 319.544,91.904 319.417,91.400 319.200 C 90.960 319.011,90.330 318.856,90.000 318.856 C 89.622 318.856,89.696 318.983,90.200 319.200 M179.000 319.200 C 179.440 319.389,180.160 319.538,180.600 319.532 C 181.243 319.523,181.204 319.457,180.400 319.200 C 179.032 318.762,177.981 318.762,179.000 319.200 M201.800 319.200 C 201.296 319.417,201.222 319.544,201.600 319.544 C 201.930 319.544,202.560 319.389,203.000 319.200 C 203.504 318.983,203.578 318.856,203.200 318.856 C 202.870 318.856,202.240 319.011,201.800 319.200 M93.400 320.000 C 93.840 320.189,94.560 320.344,95.000 320.344 L 95.800 320.344 95.000 320.000 C 94.560 319.811,93.840 319.656,93.400 319.656 L 92.600 319.656 93.400 320.000 M183.200 319.998 C 184.188 320.316,187.889 320.535,187.567 320.256 C 187.475 320.177,186.230 320.014,184.800 319.894 C 183.240 319.763,182.600 319.805,183.200 319.998 M196.000 320.000 L 194.200 320.280 196.000 320.293 C 196.990 320.300,198.340 320.168,199.000 320.000 L 200.200 319.695 199.000 319.707 C 198.340 319.714,196.990 319.846,196.000 320.000 M97.400 320.800 C 97.840 320.989,98.650 321.138,99.200 321.132 L 100.200 321.120 99.200 320.800 C 98.650 320.624,97.840 320.474,97.400 320.468 L 96.600 320.456 97.400 320.800 M101.600 321.600 C 101.930 321.813,102.650 321.973,103.200 321.954 L 104.200 321.920 103.200 321.600 C 101.658 321.106,100.836 321.106,101.600 321.600 M105.400 322.400 C 105.840 322.589,106.560 322.738,107.000 322.732 C 107.643 322.723,107.604 322.657,106.800 322.400 C 105.432 321.962,104.381 321.962,105.400 322.400 M108.600 323.200 C 109.040 323.389,109.760 323.538,110.200 323.532 C 110.843 323.523,110.804 323.457,110.000 323.200 C 108.632 322.762,107.581 322.762,108.600 323.200 M112.400 324.000 C 112.730 324.213,113.450 324.373,114.000 324.354 L 115.000 324.320 114.000 324.000 C 112.458 323.506,111.636 323.506,112.400 324.000 M116.400 324.800 C 116.730 325.013,117.360 325.178,117.800 325.166 L 118.600 325.144 117.800 324.800 C 116.604 324.286,115.605 324.286,116.400 324.800 M120.000 325.582 C 120.330 325.805,120.945 325.991,121.367 325.994 C 122.390 326.002,122.071 325.773,120.600 325.444 C 119.724 325.248,119.562 325.285,120.000 325.582 M123.200 326.400 C 123.530 326.613,124.250 326.773,124.800 326.754 L 125.800 326.720 124.800 326.400 C 123.258 325.906,122.436 325.906,123.200 326.400 M127.200 327.194 C 127.530 327.411,128.235 327.591,128.767 327.594 C 130.051 327.602,129.725 327.375,128.000 327.058 C 127.015 326.877,126.778 326.918,127.200 327.194 M130.800 328.000 C 131.130 328.213,131.850 328.373,132.400 328.354 L 133.400 328.320 132.400 328.000 C 130.858 327.506,130.036 327.506,130.800 328.000 M134.200 328.781 C 134.968 329.129,137.110 329.356,136.767 329.053 C 136.675 328.972,135.880 328.796,135.000 328.662 C 133.885 328.493,133.642 328.529,134.200 328.781 " stroke="none" fill="#555555" fill-rule="evenodd"></path><path id="path3" d="M71.100 67.900 C 75.775 67.964,83.425 67.964,88.100 67.900 C 92.775 67.836,88.950 67.783,79.600 67.783 C 70.250 67.783,66.425 67.836,71.100 67.900 M215.754 68.176 C 215.632 68.492,215.731 69.077,215.972 69.476 C 216.341 70.085,216.372 70.029,216.168 69.125 C 215.937 68.101,216.009 68.042,217.663 67.895 L 219.400 67.740 217.687 67.670 C 216.517 67.622,215.905 67.782,215.754 68.176 M326.368 68.300 C 325.918 68.896,325.922 68.925,326.399 68.500 C 326.831 68.115,331.191 68.000,345.288 68.000 L 363.615 68.000 363.398 69.100 C 363.192 70.145,363.202 70.153,363.592 69.263 C 363.817 68.748,363.901 68.163,363.777 67.963 C 363.298 67.188,326.962 67.515,326.368 68.300 M62.087 82.476 C 62.039 90.548,62.135 97.236,62.300 97.339 C 62.573 97.508,62.566 86.160,62.286 73.000 C 62.225 70.140,62.135 74.404,62.087 82.476 M254.550 70.000 C 254.897 71.298,256.940 76.223,257.288 76.600 C 257.491 76.820,257.270 76.010,256.798 74.800 C 255.845 72.362,254.299 69.060,254.550 70.000 M355.800 85.461 C 355.464 86.265,355.282 87.015,355.395 87.128 C 355.508 87.241,355.600 87.235,355.600 87.116 C 355.600 86.996,355.872 86.246,356.205 85.449 C 356.538 84.652,356.721 84.000,356.611 84.000 C 356.501 84.000,356.136 84.658,355.800 85.461 M353.872 89.819 C 352.932 91.789,353.064 92.124,354.047 90.262 C 354.493 89.416,354.787 88.654,354.701 88.567 C 354.614 88.481,354.241 89.044,353.872 89.819 M227.236 93.400 C 227.236 93.620,227.670 94.610,228.200 95.600 C 228.730 96.590,229.164 97.220,229.164 97.000 C 229.164 96.780,228.730 95.790,228.200 94.800 C 227.670 93.810,227.236 93.180,227.236 93.400 M351.472 95.019 C 350.532 96.989,350.664 97.324,351.647 95.462 C 352.093 94.616,352.387 93.854,352.301 93.767 C 352.214 93.681,351.841 94.244,351.472 95.019 M314.031 97.700 C 313.839 98.195,313.321 99.500,312.880 100.600 C 310.762 105.886,310.370 106.970,310.712 106.600 C 310.915 106.380,311.576 104.940,312.182 103.400 C 312.788 101.860,313.622 99.745,314.036 98.700 C 314.450 97.655,314.696 96.800,314.584 96.800 C 314.472 96.800,314.223 97.205,314.031 97.700 M229.807 99.079 C 230.407 100.514,230.800 101.162,230.800 100.716 C 230.800 100.284,229.585 97.600,229.389 97.600 C 229.279 97.600,229.467 98.266,229.807 99.079 M267.418 100.500 C 267.568 100.995,267.855 101.576,268.056 101.791 C 268.257 102.006,268.219 101.601,267.972 100.891 C 267.465 99.438,266.997 99.108,267.418 100.500 M232.028 103.800 C 232.028 104.020,232.286 104.650,232.600 105.200 C 232.914 105.750,233.172 106.020,233.172 105.800 C 233.172 105.580,232.914 104.950,232.600 104.400 C 232.286 103.850,232.028 103.580,232.028 103.800 M345.872 107.419 C 344.932 109.389,345.064 109.724,346.047 107.862 C 346.493 107.016,346.787 106.254,346.701 106.167 C 346.614 106.081,346.241 106.644,345.872 107.419 M234.400 108.953 C 234.400 109.382,235.590 111.600,235.821 111.600 C 235.931 111.600,235.723 111.015,235.359 110.300 C 234.617 108.840,234.400 108.536,234.400 108.953 M62.480 110.880 C 62.114 111.246,62.023 118.190,62.096 140.180 L 62.192 169.000 62.396 140.000 L 62.600 111.000 79.662 111.000 C 89.046 111.000,96.640 110.865,96.538 110.700 C 96.205 110.161,63.023 110.337,62.480 110.880 M129.869 111.065 C 129.498 111.436,129.528 133.908,129.900 134.139 C 130.065 134.241,130.150 129.121,130.088 122.762 L 129.976 111.200 169.981 111.200 L 209.985 111.200 210.104 120.000 L 210.223 128.800 210.212 119.900 L 210.200 111.000 170.169 110.898 C 148.151 110.842,130.016 110.917,129.869 111.065 M341.872 116.219 C 340.932 118.189,341.064 118.524,342.047 116.662 C 342.493 115.816,342.787 115.054,342.701 114.967 C 342.614 114.881,342.241 115.444,341.872 116.219 M241.634 124.200 C 241.634 124.420,241.978 125.230,242.400 126.000 C 242.822 126.770,243.166 127.220,243.166 127.000 C 243.166 126.780,242.822 125.970,242.400 125.200 C 241.978 124.430,241.634 123.980,241.634 124.200 M337.665 125.417 C 336.995 126.888,337.123 127.202,337.847 125.865 C 338.186 125.240,338.388 124.654,338.296 124.563 C 338.205 124.471,337.921 124.856,337.665 125.417 M209.129 130.300 C 208.178 131.418,206.728 133.600,206.935 133.600 C 207.040 133.600,207.772 132.700,208.562 131.600 C 209.985 129.619,210.277 128.950,209.129 130.300 M335.265 130.617 C 334.595 132.088,334.723 132.402,335.447 131.065 C 335.786 130.440,335.988 129.854,335.896 129.763 C 335.805 129.671,335.521 130.056,335.265 130.617 M246.000 133.284 C 246.000 133.716,247.215 136.400,247.411 136.400 C 247.521 136.400,247.333 135.734,246.993 134.921 C 246.393 133.486,246.000 132.838,246.000 133.284 M281.212 133.600 C 281.212 133.930,281.387 134.470,281.600 134.800 C 281.945 135.333,281.988 135.333,281.988 134.800 C 281.988 134.470,281.813 133.930,281.600 133.600 C 281.255 133.067,281.212 133.067,281.212 133.600 M204.175 137.068 C 203.559 137.876,203.259 138.411,203.509 138.256 C 204.021 137.940,205.753 135.600,205.475 135.600 C 205.376 135.600,204.791 136.261,204.175 137.068 M170.515 138.100 C 168.691 140.484,167.880 141.711,168.295 141.459 C 168.815 141.144,171.362 137.600,171.068 137.600 C 170.975 137.600,170.726 137.825,170.515 138.100 M283.613 139.600 C 285.005 143.119,285.148 143.425,285.175 142.953 C 285.207 142.379,283.578 138.325,283.104 137.800 C 282.905 137.580,283.134 138.390,283.613 139.600 M297.265 138.617 C 296.595 140.088,296.723 140.402,297.447 139.065 C 297.786 138.440,297.988 137.854,297.896 137.763 C 297.805 137.671,297.521 138.056,297.265 138.617 M202.515 139.300 C 200.781 141.567,199.866 142.920,200.209 142.713 C 200.681 142.427,203.337 138.800,203.074 138.800 C 202.977 138.800,202.726 139.025,202.515 139.300 M296.044 141.644 C 295.798 142.351,295.666 143.000,295.752 143.085 C 295.838 143.171,296.109 142.662,296.356 141.956 C 296.602 141.249,296.734 140.600,296.648 140.515 C 296.562 140.429,296.291 140.938,296.044 141.644 M164.549 146.300 C 163.286 148.005,162.084 149.625,161.877 149.900 C 161.671 150.175,161.597 150.400,161.714 150.400 C 161.830 150.400,162.549 149.545,163.312 148.500 C 164.074 147.455,165.262 145.835,165.952 144.900 C 166.641 143.965,167.124 143.200,167.025 143.200 C 166.926 143.200,165.812 144.595,164.549 146.300 M286.039 145.700 C 286.915 147.923,287.502 148.858,287.002 147.235 C 286.525 145.687,285.606 143.600,285.400 143.600 C 285.297 143.600,285.584 144.545,286.039 145.700 M294.891 144.900 C 294.210 146.784,294.304 147.294,295.026 145.630 C 295.353 144.877,295.566 144.099,295.501 143.902 C 295.435 143.705,295.160 144.154,294.891 144.900 M193.692 151.429 C 193.197 152.183,192.872 152.800,192.969 152.800 C 193.247 152.800,194.904 150.371,194.739 150.206 C 194.657 150.124,194.186 150.674,193.692 151.429 M254.834 152.200 C 254.834 152.420,255.178 153.230,255.600 154.000 C 256.022 154.770,256.366 155.220,256.366 155.000 C 256.366 154.780,256.022 153.970,255.600 153.200 C 255.178 152.430,254.834 151.980,254.834 152.200 M158.608 154.442 C 157.801 155.565,157.332 156.365,157.566 156.221 C 158.052 155.920,160.532 152.400,160.257 152.400 C 160.157 152.400,159.415 153.319,158.608 154.442 M190.496 155.805 C 189.332 157.603,189.600 157.600,190.973 155.800 C 191.560 155.030,191.897 154.402,191.720 154.405 C 191.544 154.408,190.993 155.038,190.496 155.805 M291.232 154.900 C 291.195 155.701,290.168 155.851,289.865 155.100 C 289.707 154.708,289.656 154.711,289.632 155.113 C 289.589 155.803,290.750 156.210,291.272 155.688 C 291.502 155.458,291.594 155.029,291.477 154.735 C 291.332 154.373,291.253 154.427,291.232 154.900 M155.775 158.268 C 155.159 159.076,154.859 159.611,155.109 159.456 C 155.621 159.140,157.353 156.800,157.075 156.800 C 156.976 156.800,156.391 157.461,155.775 158.268 M187.551 159.900 C 186.630 161.165,185.703 162.425,185.490 162.700 C 185.276 162.975,185.200 163.200,185.319 163.200 C 185.438 163.200,186.452 161.940,187.572 160.400 C 188.692 158.860,189.523 157.600,189.417 157.600 C 189.312 157.600,188.472 158.635,187.551 159.900 M322.065 159.417 C 321.395 160.888,321.523 161.202,322.247 159.865 C 322.586 159.240,322.788 158.654,322.696 158.563 C 322.605 158.471,322.321 158.856,322.065 159.417 M259.407 162.279 C 260.007 163.714,260.400 164.362,260.400 163.916 C 260.400 163.484,259.185 160.800,258.989 160.800 C 258.879 160.800,259.067 161.466,259.407 162.279 M153.144 161.900 C 151.875 163.432,151.419 164.142,151.881 163.865 C 152.393 163.558,154.169 161.200,153.889 161.200 C 153.798 161.200,153.463 161.515,153.144 161.900 M319.615 164.698 C 318.559 166.958,317.995 168.400,318.165 168.400 C 318.414 168.400,320.442 163.909,320.271 163.737 C 320.193 163.660,319.898 164.092,319.615 164.698 M150.729 165.100 C 149.778 166.218,148.328 168.400,148.535 168.400 C 148.640 168.400,149.372 167.500,150.162 166.400 C 151.585 164.419,151.877 163.750,150.729 165.100 M261.600 166.953 C 261.600 167.382,262.790 169.600,263.021 169.600 C 263.131 169.600,262.923 169.015,262.559 168.300 C 261.817 166.840,261.600 166.536,261.600 166.953 M317.072 170.219 C 316.132 172.189,316.264 172.524,317.247 170.662 C 317.693 169.816,317.987 169.054,317.901 168.967 C 317.814 168.881,317.441 169.444,317.072 170.219 M146.144 171.500 C 145.541 172.325,144.599 173.616,144.051 174.368 C 143.503 175.121,143.256 175.613,143.502 175.461 C 143.748 175.309,144.765 174.018,145.761 172.592 C 147.689 169.835,147.990 168.975,146.144 171.500 M263.236 170.200 C 263.236 170.420,263.670 171.410,264.200 172.400 C 264.730 173.390,265.164 174.020,265.164 173.800 C 265.164 173.580,264.730 172.590,264.200 171.600 C 263.670 170.610,263.236 169.980,263.236 170.200 M176.329 175.500 C 175.378 176.618,173.928 178.800,174.135 178.800 C 174.240 178.800,174.972 177.900,175.762 176.800 C 177.185 174.819,177.477 174.150,176.329 175.500 M266.434 177.000 C 266.434 177.220,266.778 178.030,267.200 178.800 C 267.622 179.570,267.966 180.020,267.966 179.800 C 267.966 179.580,267.622 178.770,267.200 178.000 C 266.778 177.230,266.434 176.780,266.434 177.000 M140.608 179.242 C 139.801 180.365,139.332 181.165,139.566 181.021 C 140.052 180.720,142.532 177.200,142.257 177.200 C 142.157 177.200,141.415 178.119,140.608 179.242 M172.329 181.100 C 171.378 182.218,169.928 184.400,170.135 184.400 C 170.240 184.400,170.972 183.500,171.762 182.400 C 173.185 180.419,173.477 179.750,172.329 181.100 M137.715 183.300 C 135.981 185.567,135.066 186.920,135.409 186.713 C 135.881 186.427,138.537 182.800,138.274 182.800 C 138.177 182.800,137.926 183.025,137.715 183.300 M168.679 186.100 C 167.594 187.568,166.862 188.832,167.463 188.200 C 168.205 187.420,170.038 184.800,169.841 184.800 C 169.731 184.800,169.208 185.385,168.679 186.100 M134.344 187.900 C 133.193 189.289,132.706 190.000,132.904 190.000 C 133.014 190.000,133.586 189.370,134.173 188.600 C 135.263 187.171,135.395 186.632,134.344 187.900 M271.225 187.320 C 271.211 187.496,271.485 188.190,271.833 188.863 C 272.193 189.560,272.370 190.541,272.243 191.143 C 272.026 192.176,272.032 192.179,272.480 191.281 C 272.856 190.528,272.786 190.058,272.094 188.681 C 271.630 187.756,271.238 187.144,271.225 187.320 M131.944 191.100 C 130.793 192.489,130.306 193.200,130.504 193.200 C 130.614 193.200,131.186 192.570,131.773 191.800 C 132.863 190.371,132.995 189.832,131.944 191.100 M62.191 202.500 L 62.200 214.200 79.200 214.467 C 88.550 214.614,96.326 214.614,96.480 214.467 C 96.634 214.320,95.644 214.198,94.280 214.196 C 92.916 214.194,85.188 214.149,77.106 214.096 L 62.412 214.000 62.297 202.400 L 62.182 190.800 62.191 202.500 M177.729 191.500 C 184.510 191.561,195.490 191.561,202.129 191.500 C 208.768 191.438,203.220 191.388,189.800 191.388 C 176.380 191.388,170.948 191.438,177.729 191.500 M214.264 197.896 C 214.120 201.363,214.002 206.403,214.001 209.096 L 214.000 213.993 170.740 214.096 C 142.357 214.164,127.297 214.062,126.950 213.800 C 126.600 213.535,126.378 212.187,126.293 209.800 L 126.165 206.200 126.082 210.076 C 126.033 212.391,126.166 214.055,126.411 214.207 C 126.804 214.450,162.100 214.573,197.636 214.455 L 214.272 214.400 214.545 203.142 C 214.695 196.950,214.752 191.819,214.672 191.738 C 214.591 191.658,214.408 194.429,214.264 197.896 M306.672 193.419 C 305.732 195.389,305.864 195.724,306.847 193.862 C 307.293 193.016,307.587 192.254,307.501 192.167 C 307.414 192.081,307.041 192.644,306.672 193.419 M127.590 197.014 C 126.904 198.011,126.431 199.046,126.540 199.314 C 126.683 199.668,126.745 199.657,126.768 199.272 C 126.786 198.982,127.349 197.947,128.019 196.972 C 128.690 195.997,129.148 195.200,129.038 195.200 C 128.928 195.200,128.277 196.016,127.590 197.014 M304.400 198.084 C 304.400 198.204,304.128 198.954,303.795 199.751 C 303.462 200.548,303.279 201.200,303.389 201.200 C 303.706 201.200,304.833 198.300,304.605 198.072 C 304.492 197.959,304.400 197.965,304.400 198.084 M267.072 202.619 C 266.132 204.589,266.264 204.924,267.247 203.062 C 267.693 202.216,267.987 201.454,267.901 201.367 C 267.814 201.281,267.441 201.844,267.072 202.619 M301.867 204.067 C 301.281 205.424,300.866 206.599,300.944 206.678 C 301.023 206.756,301.568 205.711,302.156 204.356 C 302.743 203.000,303.159 201.825,303.078 201.745 C 302.998 201.664,302.452 202.709,301.867 204.067 M265.472 206.219 C 264.532 208.189,264.664 208.524,265.647 206.662 C 266.093 205.816,266.387 205.054,266.301 204.967 C 266.214 204.881,265.841 205.444,265.472 206.219 M298.272 212.219 C 297.332 214.189,297.464 214.524,298.447 212.662 C 298.893 211.816,299.187 211.054,299.101 210.967 C 299.014 210.881,298.641 211.444,298.272 212.219 M262.205 213.800 C 261.872 214.570,261.328 215.830,260.995 216.600 C 260.662 217.370,260.479 218.000,260.589 218.000 C 260.699 218.000,261.062 217.370,261.395 216.600 C 261.728 215.830,262.272 214.570,262.605 213.800 C 262.938 213.030,263.121 212.400,263.011 212.400 C 262.901 212.400,262.538 213.030,262.205 213.800 M293.423 223.006 C 292.560 225.072,292.674 225.306,293.647 223.462 C 294.093 222.616,294.365 221.832,294.252 221.719 C 294.139 221.606,293.766 222.185,293.423 223.006 M98.515 234.296 C 99.788 234.376,101.768 234.375,102.915 234.294 C 104.062 234.214,103.020 234.149,100.600 234.150 C 98.180 234.151,97.242 234.216,98.515 234.296 M91.600 234.800 C 90.808 235.054,90.767 235.120,91.400 235.120 C 91.840 235.120,92.650 234.976,93.200 234.800 C 93.992 234.546,94.033 234.480,93.400 234.480 C 92.960 234.480,92.150 234.624,91.600 234.800 M108.200 234.800 C 109.892 235.231,111.344 235.231,110.000 234.800 C 109.450 234.624,108.550 234.483,108.000 234.487 C 107.102 234.494,107.122 234.526,108.200 234.800 M88.200 235.600 L 87.400 235.944 88.200 235.966 C 88.640 235.978,89.270 235.813,89.600 235.600 C 90.395 235.086,89.396 235.086,88.200 235.600 M112.200 235.600 C 112.640 235.789,113.270 235.944,113.600 235.944 C 113.978 235.944,113.904 235.817,113.400 235.600 C 112.960 235.411,112.330 235.256,112.000 235.256 C 111.622 235.256,111.696 235.383,112.200 235.600 M287.665 236.217 C 286.995 237.688,287.123 238.002,287.847 236.665 C 288.186 236.040,288.388 235.454,288.296 235.363 C 288.205 235.271,287.921 235.656,287.665 236.217 M155.043 237.433 C 154.718 238.280,154.808 288.799,155.140 291.600 C 155.283 292.810,155.400 280.975,155.400 265.300 C 155.400 249.625,155.374 236.800,155.343 236.800 C 155.311 236.800,155.176 237.085,155.043 237.433 M174.700 237.082 C 175.786 237.291,175.641 234.228,175.978 264.200 L 176.244 287.800 176.321 269.200 C 176.363 258.970,176.280 247.495,176.136 243.700 L 175.874 236.800 174.837 236.854 C 173.895 236.904,173.883 236.925,174.700 237.082 M206.464 240.500 C 206.529 244.262,206.688 243.814,206.889 239.299 C 206.950 237.924,206.865 236.799,206.700 236.799 C 206.535 236.800,206.429 238.465,206.464 240.500 M220.293 237.096 L 227.587 237.218 227.703 247.309 L 227.820 257.400 227.810 247.200 L 227.800 237.000 220.400 236.987 L 213.000 236.974 220.293 237.096 M250.672 239.819 C 249.732 241.789,249.864 242.124,250.847 240.262 C 251.293 239.416,251.587 238.654,251.501 238.567 C 251.414 238.481,251.041 239.044,250.672 239.819 M77.800 240.000 C 77.140 240.437,76.780 240.792,77.000 240.788 C 77.401 240.782,79.576 239.223,79.200 239.212 C 79.090 239.208,78.460 239.563,77.800 240.000 M73.053 243.214 C 71.982 244.086,71.262 244.795,71.453 244.788 C 71.814 244.776,75.552 241.622,75.200 241.626 C 75.090 241.627,74.124 242.342,73.053 243.214 M128.045 242.900 C 128.143 242.955,129.653 244.350,131.401 246.000 C 133.149 247.650,134.134 248.466,133.589 247.812 C 132.062 245.979,128.675 242.800,128.249 242.800 C 128.039 242.800,127.947 242.845,128.045 242.900 M68.175 248.100 L 67.000 249.400 68.300 248.225 C 69.512 247.130,69.784 246.800,69.475 246.800 C 69.406 246.800,68.821 247.385,68.175 248.100 M134.802 249.433 C 134.803 249.635,135.268 250.340,135.835 251.000 L 136.866 252.200 135.963 250.800 C 134.804 249.004,134.800 248.999,134.802 249.433 M65.417 251.500 C 63.940 253.516,61.594 257.680,61.609 258.256 C 61.614 258.445,62.217 257.490,62.948 256.133 C 63.680 254.775,64.935 252.750,65.738 251.633 C 66.542 250.515,67.111 249.600,67.003 249.600 C 66.896 249.600,66.182 250.455,65.417 251.500 M276.311 250.293 C 277.251 250.378,278.691 250.377,279.511 250.291 C 280.330 250.205,279.560 250.136,277.800 250.137 C 276.040 250.139,275.370 250.209,276.311 250.293 M99.500 250.682 C 99.995 250.778,100.805 250.778,101.300 250.682 C 101.795 250.587,101.390 250.509,100.400 250.509 C 99.410 250.509,99.005 250.587,99.500 250.682 M94.056 251.259 C 93.317 251.472,92.783 251.717,92.870 251.803 C 92.957 251.890,93.921 251.716,95.014 251.416 C 96.106 251.117,96.640 250.872,96.200 250.872 C 95.760 250.872,94.795 251.046,94.056 251.259 M104.200 251.200 C 104.640 251.389,105.360 251.538,105.800 251.532 C 106.443 251.523,106.404 251.457,105.600 251.200 C 104.232 250.762,103.181 250.762,104.200 251.200 M138.091 254.666 C 138.811 256.022,139.458 257.075,139.528 257.005 C 139.704 256.829,138.205 253.978,137.422 253.000 C 137.070 252.560,137.371 253.310,138.091 254.666 M87.270 255.369 C 86.022 256.562,84.677 258.137,84.283 258.869 C 83.660 260.024,83.657 260.068,84.257 259.200 C 84.638 258.650,86.077 257.075,87.455 255.700 C 90.530 252.631,90.393 252.386,87.270 255.369 M113.087 255.623 C 113.795 256.358,114.462 256.872,114.569 256.765 C 114.675 256.658,114.096 256.057,113.281 255.429 L 111.800 254.287 113.087 255.623 M206.573 265.600 C 206.573 270.990,206.630 273.195,206.699 270.500 C 206.768 267.805,206.768 263.395,206.699 260.700 C 206.630 258.005,206.573 260.210,206.573 265.600 M117.000 260.400 C 117.341 261.060,117.711 261.600,117.821 261.600 C 117.931 261.600,117.741 261.060,117.400 260.400 C 117.059 259.740,116.689 259.200,116.579 259.200 C 116.469 259.200,116.659 259.740,117.000 260.400 M82.581 261.637 C 82.229 262.318,82.012 262.945,82.099 263.032 C 82.186 263.119,82.556 262.562,82.922 261.795 C 83.744 260.070,83.459 259.938,82.581 261.637 M142.087 265.600 C 142.083 266.150,142.224 267.050,142.400 267.600 C 142.831 268.944,142.831 267.492,142.400 265.800 C 142.126 264.722,142.094 264.702,142.087 265.600 M58.240 270.640 C 58.090 272.103,58.049 273.382,58.148 273.482 C 58.248 273.581,58.457 272.471,58.613 271.013 C 58.769 269.556,58.811 268.277,58.705 268.172 C 58.599 268.066,58.390 269.177,58.240 270.640 M79.882 269.950 C 79.727 270.693,79.620 271.772,79.644 272.350 C 79.673 273.042,79.810 272.787,80.047 271.600 C 80.245 270.610,80.352 269.530,80.285 269.200 C 80.219 268.870,80.038 269.207,79.882 269.950 M120.702 271.800 C 120.817 273.560,120.977 275.075,121.056 275.167 C 121.323 275.475,121.109 271.012,120.798 269.800 C 120.624 269.119,120.582 269.985,120.702 271.800 M142.992 276.400 C 142.988 282.673,143.005 282.817,143.334 279.318 C 143.527 277.265,143.529 274.346,143.337 272.718 C 143.043 270.208,142.994 270.722,142.992 276.400 M206.555 281.400 C 206.556 284.260,206.620 285.378,206.697 283.883 C 206.774 282.389,206.774 280.049,206.696 278.683 C 206.618 277.318,206.555 278.540,206.555 281.400 M120.874 279.050 C 120.833 279.957,120.705 281.308,120.589 282.050 C 120.397 283.284,120.416 283.315,120.807 282.416 C 121.043 281.876,121.171 280.526,121.092 279.416 C 120.958 277.540,120.943 277.515,120.874 279.050 M58.091 279.400 C 58.080 280.280,58.210 281.900,58.382 283.000 C 58.631 284.603,58.696 284.722,58.707 283.600 C 58.715 282.830,58.584 281.210,58.417 280.000 C 58.152 278.084,58.110 278.007,58.091 279.400 M79.640 280.033 C 79.662 280.785,79.830 281.850,80.013 282.400 C 80.229 283.046,80.266 282.620,80.119 281.200 C 79.859 278.683,79.581 278.007,79.640 280.033 M80.434 284.600 C 80.422 285.040,80.587 285.670,80.800 286.000 C 81.314 286.795,81.314 285.796,80.800 284.600 L 80.456 283.800 80.434 284.600 M227.432 287.432 C 227.277 289.331,227.235 290.968,227.337 291.071 C 227.440 291.173,227.653 289.706,227.811 287.811 C 227.968 285.915,228.011 284.277,227.905 284.171 C 227.799 284.065,227.586 285.532,227.432 287.432 M119.829 285.429 C 119.681 286.015,119.651 286.584,119.761 286.694 C 119.871 286.804,120.081 286.415,120.229 285.829 C 120.376 285.242,120.406 284.673,120.296 284.563 C 120.186 284.453,119.976 284.842,119.829 285.429 M58.868 286.400 C 58.888 287.439,59.518 289.146,59.532 288.200 C 59.538 287.760,59.389 287.040,59.200 286.600 C 58.989 286.110,58.861 286.032,58.868 286.400 M141.429 288.629 C 141.281 289.215,141.238 289.772,141.332 289.866 C 141.427 289.960,141.624 289.558,141.771 288.971 C 141.919 288.385,141.962 287.828,141.868 287.734 C 141.773 287.640,141.576 288.042,141.429 288.629 M206.054 289.600 C 206.019 290.150,205.896 291.050,205.783 291.600 L 205.577 292.600 206.007 291.615 C 206.243 291.074,206.365 290.174,206.278 289.615 L 206.120 288.600 206.054 289.600 M176.406 290.433 C 176.409 290.965,176.589 291.670,176.806 292.000 C 177.082 292.422,177.123 292.185,176.942 291.200 C 176.625 289.475,176.398 289.149,176.406 290.433 M226.622 293.422 C 226.472 294.225,226.428 294.962,226.526 295.060 C 226.624 295.157,226.827 294.581,226.978 293.778 C 227.128 292.975,227.172 292.238,227.074 292.140 C 226.976 292.043,226.773 292.619,226.622 293.422 M84.714 294.204 C 84.941 294.647,85.548 295.366,86.063 295.802 C 86.967 296.566,86.965 296.552,86.006 295.397 C 84.413 293.479,84.279 293.355,84.714 294.204 M114.672 295.339 C 113.888 296.295,112.066 297.859,110.623 298.815 C 107.989 300.559,107.223 301.242,108.900 300.349 C 111.501 298.966,117.369 293.600,116.282 293.600 C 116.180 293.600,115.455 294.382,114.672 295.339 M155.844 295.800 C 156.173 297.271,156.402 297.590,156.394 296.567 C 156.391 296.145,156.205 295.530,155.982 295.200 C 155.685 294.762,155.648 294.924,155.844 295.800 M201.877 298.653 C 199.919 300.521,199.380 301.465,201.200 299.838 C 202.416 298.752,204.204 296.796,203.970 296.809 C 203.876 296.814,202.935 297.644,201.877 298.653 M224.600 299.861 C 224.264 300.665,224.082 301.415,224.195 301.528 C 224.308 301.641,224.400 301.635,224.400 301.516 C 224.400 301.396,224.672 300.646,225.005 299.849 C 225.338 299.052,225.521 298.400,225.411 298.400 C 225.301 298.400,224.936 299.058,224.600 299.861 M135.577 300.700 C 134.820 301.745,134.131 302.780,134.046 303.000 C 133.834 303.551,136.386 300.368,136.852 299.500 C 137.524 298.250,136.985 298.757,135.577 300.700 M64.000 299.783 C 64.000 300.274,67.440 304.975,68.264 305.609 C 68.805 306.025,68.772 305.913,68.143 305.188 C 67.671 304.645,66.546 303.135,65.643 301.834 C 64.739 300.532,64.000 299.609,64.000 299.783 M96.876 302.060 C 97.384 302.203,98.970 302.320,100.400 302.320 C 101.830 302.320,103.416 302.203,103.924 302.060 C 104.432 301.917,102.846 301.800,100.400 301.800 C 97.954 301.800,96.368 301.917,96.876 302.060 M222.491 304.100 C 221.838 305.255,220.432 307.280,219.366 308.600 C 218.300 309.920,217.739 310.750,218.121 310.445 C 219.117 309.648,222.339 305.288,223.246 303.510 C 224.391 301.265,223.855 301.683,222.491 304.100 M189.511 302.693 C 190.451 302.778,191.891 302.777,192.711 302.691 C 193.530 302.605,192.760 302.536,191.000 302.537 C 189.240 302.539,188.570 302.609,189.511 302.693 M130.744 306.207 C 129.283 307.633,128.208 308.800,128.355 308.800 C 128.503 308.800,129.783 307.630,131.200 306.200 C 132.617 304.770,133.692 303.603,133.588 303.607 C 133.485 303.611,132.205 304.781,130.744 306.207 M159.400 305.200 C 159.741 305.860,160.111 306.400,160.221 306.400 C 160.331 306.400,160.141 305.860,159.800 305.200 C 159.459 304.540,159.089 304.000,158.979 304.000 C 158.869 304.000,159.059 304.540,159.400 305.200 M68.800 306.518 C 68.800 306.628,70.060 307.835,71.600 309.200 C 73.140 310.565,74.400 311.592,74.400 311.482 C 74.400 311.372,73.140 310.165,71.600 308.800 C 70.060 307.435,68.800 306.408,68.800 306.518 M163.800 310.800 C 165.106 312.120,166.265 313.200,166.375 313.200 C 166.485 313.200,165.506 312.120,164.200 310.800 C 162.894 309.480,161.735 308.400,161.625 308.400 C 161.515 308.400,162.494 309.480,163.800 310.800 M127.398 309.603 C 127.100 310.085,128.162 310.561,128.887 310.269 C 129.169 310.156,128.984 310.049,128.476 310.032 C 127.968 310.014,127.664 309.820,127.800 309.600 C 127.936 309.380,127.957 309.200,127.847 309.200 C 127.737 309.200,127.535 309.381,127.398 309.603 M132.100 311.076 C 132.485 311.176,133.115 311.176,133.500 311.076 C 133.885 310.975,133.570 310.893,132.800 310.893 C 132.030 310.893,131.715 310.975,132.100 311.076 M215.854 311.833 C 215.223 312.387,214.787 312.920,214.883 313.016 C 214.979 313.113,215.574 312.654,216.204 311.996 C 217.596 310.543,217.416 310.459,215.854 311.833 M136.900 311.876 C 137.285 311.976,137.915 311.976,138.300 311.876 C 138.685 311.775,138.370 311.693,137.600 311.693 C 136.830 311.693,136.515 311.775,136.900 311.876 M142.400 312.625 L 143.600 312.851 143.600 321.443 L 143.600 330.036 142.100 329.821 C 140.674 329.616,140.659 329.625,141.800 330.001 C 144.036 330.737,144.025 330.782,143.908 321.310 L 143.800 312.600 142.500 312.500 C 141.218 312.401,141.217 312.403,142.400 312.625 M77.200 313.379 C 77.200 313.489,77.740 313.859,78.400 314.200 C 79.060 314.541,79.600 314.731,79.600 314.621 C 79.600 314.511,79.060 314.141,78.400 313.800 C 77.740 313.459,77.200 313.269,77.200 313.379 M88.800 318.382 C 89.130 318.605,89.745 318.791,90.167 318.794 C 91.190 318.802,90.871 318.573,89.400 318.244 C 88.524 318.048,88.362 318.085,88.800 318.382 M91.800 319.200 C 92.240 319.389,92.960 319.538,93.400 319.532 C 94.043 319.523,94.004 319.457,93.200 319.200 C 91.832 318.762,90.781 318.762,91.800 319.200 M180.800 319.180 C 181.799 319.520,184.282 319.732,183.967 319.451 C 183.875 319.369,182.900 319.199,181.800 319.072 C 180.451 318.916,180.126 318.951,180.800 319.180 M199.200 319.200 C 197.843 319.486,197.837 319.495,199.000 319.507 C 199.660 319.515,200.650 319.376,201.200 319.200 C 202.512 318.780,201.196 318.780,199.200 319.200 M185.900 319.882 C 186.395 319.978,187.205 319.978,187.700 319.882 C 188.195 319.787,187.790 319.709,186.800 319.709 C 185.810 319.709,185.405 319.787,185.900 319.882 M193.700 319.887 C 194.305 319.978,195.295 319.978,195.900 319.887 C 196.505 319.795,196.010 319.720,194.800 319.720 C 193.590 319.720,193.095 319.795,193.700 319.887 M111.233 323.344 C 111.325 323.424,112.210 323.596,113.200 323.727 C 114.402 323.886,114.734 323.847,114.200 323.610 C 113.436 323.272,110.886 323.043,111.233 323.344 M116.400 324.400 C 117.768 324.838,118.819 324.838,117.800 324.400 C 117.360 324.211,116.640 324.062,116.200 324.068 C 115.557 324.077,115.596 324.143,116.400 324.400 M118.833 324.943 C 118.925 325.021,119.630 325.201,120.400 325.342 C 121.385 325.523,121.622 325.482,121.200 325.206 C 120.658 324.850,118.437 324.603,118.833 324.943 M122.433 325.743 C 122.525 325.821,123.230 326.001,124.000 326.142 C 124.985 326.323,125.222 326.282,124.800 326.006 C 124.258 325.650,122.037 325.403,122.433 325.743 M126.433 326.543 C 126.525 326.621,127.230 326.801,128.000 326.942 C 128.985 327.123,129.222 327.082,128.800 326.806 C 128.258 326.450,126.037 326.203,126.433 326.543 M131.200 327.600 C 132.568 328.038,133.619 328.038,132.600 327.600 C 132.160 327.411,131.440 327.262,131.000 327.268 C 130.357 327.277,130.396 327.343,131.200 327.600 M134.400 328.400 C 135.768 328.838,136.819 328.838,135.800 328.400 C 135.360 328.211,134.640 328.062,134.200 328.068 C 133.557 328.077,133.596 328.143,134.400 328.400 M138.000 329.200 C 139.368 329.638,140.419 329.638,139.400 329.200 C 138.960 329.011,138.240 328.862,137.800 328.868 C 137.157 328.877,137.196 328.943,138.000 329.200 " stroke="none" fill="#848484" fill-rule="evenodd"></path><path id="path4" d="M96.709 82.607 L 96.819 97.574 92.409 97.707 L 87.999 97.841 92.499 97.821 L 97.000 97.800 97.105 83.025 C 97.163 74.899,97.073 68.113,96.905 67.945 C 96.737 67.777,96.649 74.375,96.709 82.607 M227.700 67.900 C 232.485 67.963,240.315 67.963,245.100 67.900 C 249.885 67.836,245.970 67.784,236.400 67.784 C 226.830 67.784,222.915 67.836,227.700 67.900 M61.761 81.200 C 61.761 84.610,61.822 86.005,61.897 84.300 C 61.972 82.595,61.972 79.805,61.897 78.100 C 61.822 76.395,61.761 77.790,61.761 81.200 M96.985 131.400 C 96.985 141.960,97.037 146.223,97.100 140.872 C 97.163 135.522,97.163 126.882,97.100 121.672 C 97.036 116.463,96.985 120.840,96.985 131.400 M140.300 134.700 C 145.635 134.763,154.365 134.763,159.700 134.700 C 165.035 134.637,160.670 134.585,150.000 134.585 C 139.330 134.585,134.965 134.637,140.300 134.700 M96.990 185.000 C 96.990 201.060,97.039 207.572,97.100 199.471 C 97.160 191.369,97.160 178.229,97.100 170.271 C 97.039 162.312,96.990 168.940,96.990 185.000 M61.784 176.800 C 61.784 186.370,61.836 190.285,61.900 185.500 C 61.963 180.715,61.963 172.885,61.900 168.100 C 61.836 163.315,61.784 167.230,61.784 176.800 M126.146 202.600 C 126.147 204.800,126.214 205.649,126.295 204.487 C 126.376 203.324,126.376 201.524,126.293 200.487 C 126.211 199.449,126.145 200.400,126.146 202.600 M214.565 207.000 C 214.566 210.960,214.626 212.526,214.698 210.480 C 214.771 208.434,214.771 205.194,214.698 203.280 C 214.624 201.366,214.565 203.040,214.565 207.000 M69.125 214.699 C 72.714 214.766,78.474 214.766,81.925 214.699 C 85.376 214.633,82.440 214.578,75.400 214.578 C 68.360 214.579,65.536 214.633,69.125 214.699 M128.905 214.687 C 129.514 214.779,130.414 214.777,130.905 214.682 C 131.397 214.587,130.900 214.511,129.800 214.514 C 128.700 214.517,128.297 214.595,128.905 214.687 M145.100 214.700 C 149.555 214.764,156.845 214.764,161.300 214.700 C 165.755 214.635,162.110 214.582,153.200 214.582 C 144.290 214.582,140.645 214.635,145.100 214.700 M189.300 214.700 C 193.865 214.764,201.335 214.764,205.900 214.700 C 210.465 214.635,206.730 214.583,197.600 214.583 C 188.470 214.583,184.735 214.635,189.300 214.700 M176.151 241.600 C 176.151 244.130,176.216 245.165,176.296 243.900 C 176.375 242.635,176.375 240.565,176.296 239.300 C 176.216 238.035,176.151 239.070,176.151 241.600 M253.874 250.299 C 257.655 250.365,263.955 250.365,267.874 250.299 C 271.793 250.234,268.700 250.180,261.000 250.180 C 253.300 250.180,250.093 250.234,253.874 250.299 M79.734 276.000 C 79.734 277.650,79.805 278.325,79.891 277.500 C 79.978 276.675,79.978 275.325,79.891 274.500 C 79.805 273.675,79.734 274.350,79.734 276.000 M120.893 276.400 C 120.893 277.170,120.975 277.485,121.076 277.100 C 121.176 276.715,121.176 276.085,121.076 275.700 C 120.975 275.315,120.893 275.630,120.893 276.400 M113.375 296.500 L 112.200 297.800 113.500 296.625 C 114.712 295.530,114.984 295.200,114.675 295.200 C 114.606 295.200,114.021 295.785,113.375 296.500 M130.778 306.700 L 129.400 308.200 130.900 306.822 C 132.296 305.538,132.584 305.200,132.278 305.200 C 132.212 305.200,131.537 305.875,130.778 306.700 M163.600 311.000 C 164.346 311.770,165.047 312.400,165.157 312.400 C 165.267 312.400,164.746 311.770,164.000 311.000 C 163.254 310.230,162.553 309.600,162.443 309.600 C 162.333 309.600,162.854 310.230,163.600 311.000 M143.999 319.319 L 144.198 326.200 144.309 319.630 C 144.370 316.017,144.281 312.920,144.110 312.749 C 143.940 312.578,143.890 315.534,143.999 319.319 M192.305 320.283 C 192.802 320.379,193.522 320.375,193.905 320.275 C 194.287 320.175,193.880 320.096,193.000 320.101 C 192.120 320.105,191.807 320.187,192.305 320.283 " stroke="none" fill="#7c7c7c" fill-rule="evenodd"></path></g></svg>