<svg id="svg" version="1.1" xmlns="http://www.w3.org/2000/svg" xmlns:xlink="http://www.w3.org/1999/xlink" width="400" height="400" viewBox="0, 0, 400,400"><g id="svgg"><path id="path0" d="M33.400 0.292 C 32.520 0.381,31.629 0.621,31.420 0.827 C 31.211 1.032,30.624 1.200,30.115 1.200 C 29.606 1.200,28.832 1.380,28.395 1.600 C 27.958 1.820,27.242 2.180,26.805 2.400 C 26.368 2.620,25.738 2.800,25.405 2.800 C 25.072 2.800,24.800 2.980,24.800 3.200 C 24.800 3.420,24.440 3.600,24.000 3.600 C 23.560 3.600,23.200 3.780,23.200 4.000 C 23.200 4.220,22.840 4.400,22.400 4.400 C 21.960 4.400,21.600 4.580,21.600 4.800 C 21.600 5.020,21.280 5.200,20.888 5.200 C 20.497 5.200,19.917 5.560,19.600 6.000 C 19.283 6.440,18.785 6.800,18.494 6.800 C 18.202 6.800,17.514 7.250,16.964 7.800 C 16.414 8.350,15.770 8.800,15.533 8.800 C 14.972 8.800,8.800 14.972,8.800 15.533 C 8.800 15.770,8.350 16.414,7.800 16.964 C 7.250 17.514,6.800 18.202,6.800 18.494 C 6.800 18.785,6.440 19.283,6.000 19.600 C 5.560 19.917,5.200 20.497,5.200 20.888 C 5.200 21.280,5.020 21.600,4.800 21.600 C 4.580 21.600,4.400 21.960,4.400 22.400 C 4.400 22.840,4.220 23.200,4.000 23.200 C 3.780 23.200,3.600 23.560,3.600 24.000 C 3.600 24.440,3.420 24.800,3.200 24.800 C 2.980 24.800,2.800 25.160,2.800 25.600 C 2.800 26.040,2.620 26.400,2.400 26.400 C 2.180 26.400,2.000 26.839,2.000 27.376 C 2.000 27.913,1.820 28.464,1.600 28.600 C 1.380 28.736,1.200 29.341,1.200 29.944 C 1.200 30.547,0.975 31.265,0.700 31.540 C -0.036 32.276,-0.036 367.724,0.700 368.460 C 0.975 368.735,1.200 369.453,1.200 370.056 C 1.200 370.659,1.380 371.264,1.600 371.400 C 1.820 371.536,2.000 372.087,2.000 372.624 C 2.000 373.161,2.180 373.600,2.400 373.600 C 2.620 373.600,2.800 373.960,2.800 374.400 C 2.800 374.840,2.980 375.200,3.200 375.200 C 3.420 375.200,3.600 375.560,3.600 376.000 C 3.600 376.440,3.780 376.800,4.000 376.800 C 4.220 376.800,4.400 377.160,4.400 377.600 C 4.400 378.040,4.580 378.400,4.800 378.400 C 5.020 378.400,5.200 378.720,5.200 379.112 C 5.200 379.503,5.560 380.083,6.000 380.400 C 6.440 380.717,6.800 381.215,6.800 381.506 C 6.800 381.798,7.250 382.486,7.800 383.036 C 8.350 383.586,8.800 384.230,8.800 384.467 C 8.800 385.028,14.972 391.200,15.533 391.200 C 15.770 391.200,16.414 391.650,16.964 392.200 C 17.514 392.750,18.159 393.200,18.399 393.200 C 18.638 393.200,19.220 393.560,19.692 394.000 C 20.164 394.440,20.787 394.800,21.075 394.800 C 21.364 394.800,21.600 394.980,21.600 395.200 C 21.600 395.420,21.960 395.600,22.400 395.600 C 22.840 395.600,23.200 395.780,23.200 396.000 C 23.200 396.220,23.560 396.400,24.000 396.400 C 24.440 396.400,24.800 396.580,24.800 396.800 C 24.800 397.020,25.072 397.200,25.405 397.200 C 25.738 397.200,26.368 397.380,26.805 397.600 C 27.242 397.820,27.958 398.180,28.395 398.400 C 28.832 398.620,29.606 398.800,30.115 398.800 C 30.624 398.800,31.265 399.025,31.540 399.300 C 32.276 400.036,367.724 400.036,368.460 399.300 C 368.735 399.025,369.453 398.800,370.056 398.800 C 370.659 398.800,371.264 398.620,371.400 398.400 C 371.536 398.180,372.087 398.000,372.624 398.000 C 373.161 398.000,373.600 397.820,373.600 397.600 C 373.600 397.380,373.960 397.200,374.400 397.200 C 374.840 397.200,375.200 397.020,375.200 396.800 C 375.200 396.580,375.560 396.400,376.000 396.400 C 376.440 396.400,376.800 396.220,376.800 396.000 C 376.800 395.780,377.160 395.600,377.600 395.600 C 378.040 395.600,378.400 395.420,378.400 395.200 C 378.400 394.980,378.636 394.800,378.925 394.800 C 379.213 394.800,379.836 394.440,380.308 394.000 C 380.780 393.560,381.362 393.200,381.601 393.200 C 381.841 393.200,382.486 392.750,383.036 392.200 C 383.586 391.650,384.230 391.200,384.467 391.200 C 385.028 391.200,391.200 385.028,391.200 384.467 C 391.200 384.230,391.650 383.586,392.200 383.036 C 392.750 382.486,393.200 381.798,393.200 381.506 C 393.200 381.215,393.560 380.717,394.000 380.400 C 394.440 380.083,394.800 379.503,394.800 379.112 C 394.800 378.720,394.980 378.400,395.200 378.400 C 395.420 378.400,395.600 378.040,395.600 377.600 C 395.600 377.160,395.780 376.800,396.000 376.800 C 396.220 376.800,396.400 376.440,396.400 376.000 C 396.400 375.560,396.580 375.200,396.800 375.200 C 397.020 375.200,397.200 374.840,397.200 374.400 C 397.200 373.960,397.380 373.600,397.600 373.600 C 397.820 373.600,398.000 373.161,398.000 372.624 C 398.000 372.087,398.180 371.536,398.400 371.400 C 398.620 371.264,398.800 370.659,398.800 370.056 C 398.800 369.453,399.025 368.735,399.300 368.460 C 400.036 367.724,400.036 32.276,399.300 31.540 C 399.025 31.265,398.800 30.547,398.800 29.944 C 398.800 29.341,398.620 28.736,398.400 28.600 C 398.180 28.464,398.000 27.913,398.000 27.376 C 398.000 26.839,397.820 26.400,397.600 26.400 C 397.380 26.400,397.200 26.040,397.200 25.600 C 397.200 25.160,397.020 24.800,396.800 24.800 C 396.580 24.800,396.400 24.440,396.400 24.000 C 396.400 23.560,396.220 23.200,396.000 23.200 C 395.780 23.200,395.600 22.840,395.600 22.400 C 395.600 21.960,395.420 21.600,395.200 21.600 C 394.980 21.600,394.800 21.280,394.800 20.888 C 394.800 20.497,394.440 19.917,394.000 19.600 C 393.560 19.283,393.200 18.785,393.200 18.494 C 393.200 18.202,392.750 17.514,392.200 16.964 C 391.650 16.414,391.200 15.792,391.200 15.583 C 391.200 14.941,385.900 9.569,384.613 8.906 C 383.946 8.563,383.109 7.948,382.753 7.541 C 382.397 7.133,381.852 6.800,381.541 6.800 C 381.231 6.800,380.717 6.440,380.400 6.000 C 380.083 5.560,379.503 5.200,379.112 5.200 C 378.720 5.200,378.400 5.020,378.400 4.800 C 378.400 4.580,378.040 4.400,377.600 4.400 C 377.160 4.400,376.800 4.220,376.800 4.000 C 376.800 3.780,376.440 3.600,376.000 3.600 C 375.560 3.600,375.200 3.420,375.200 3.200 C 375.200 2.980,374.840 2.800,374.400 2.800 C 373.960 2.800,373.600 2.620,373.600 2.400 C 373.600 2.180,373.161 2.000,372.624 2.000 C 372.087 2.000,371.536 1.820,371.400 1.600 C 371.264 1.380,370.659 1.200,370.056 1.200 C 369.453 1.200,368.735 0.975,368.460 0.700 C 367.985 0.225,38.049 -0.177,33.400 0.292 M144.728 62.203 C 145.208 62.755,145.600 63.340,145.601 63.503 C 145.601 63.666,146.141 64.430,146.800 65.200 C 147.459 65.970,147.999 66.825,147.999 67.100 C 148.000 67.375,148.150 67.600,148.332 67.600 C 148.515 67.600,148.919 68.095,149.230 68.700 C 149.540 69.305,150.111 70.091,150.497 70.447 C 150.884 70.803,151.200 71.348,151.200 71.659 C 151.200 71.969,151.560 72.483,152.000 72.800 C 152.440 73.117,152.800 73.567,152.800 73.800 C 152.800 74.033,153.160 74.483,153.600 74.800 C 154.040 75.117,154.400 75.657,154.400 76.000 C 154.400 76.343,154.760 76.883,155.200 77.200 C 155.640 77.517,156.000 78.031,156.000 78.341 C 156.000 78.652,156.341 79.202,156.758 79.564 C 157.521 80.225,158.602 81.893,159.829 84.300 C 160.193 85.015,160.651 85.600,160.846 85.600 C 161.041 85.600,161.200 85.836,161.200 86.125 C 161.200 86.413,161.560 87.036,162.000 87.508 C 162.440 87.980,162.800 88.554,162.800 88.783 C 162.800 89.012,162.941 89.200,163.114 89.200 C 163.286 89.200,163.721 89.695,164.079 90.300 C 164.437 90.905,165.196 91.940,165.765 92.600 C 166.334 93.260,166.799 93.985,166.800 94.212 C 166.800 94.438,167.160 94.883,167.600 95.200 C 168.040 95.517,168.400 96.057,168.400 96.400 C 168.400 96.743,168.760 97.283,169.200 97.600 C 169.640 97.917,170.000 98.457,170.000 98.800 C 170.000 99.143,170.360 99.683,170.800 100.000 C 171.240 100.317,171.600 100.857,171.600 101.200 C 171.600 101.543,171.960 102.083,172.400 102.400 C 172.840 102.717,173.200 103.207,173.200 103.488 C 173.200 103.770,173.380 104.000,173.600 104.000 C 173.820 104.000,174.000 104.270,174.000 104.600 C 174.000 104.930,174.180 105.200,174.400 105.200 C 174.620 105.200,174.800 105.427,174.800 105.704 C 174.800 105.981,175.250 106.693,175.800 107.287 C 176.350 107.880,176.800 108.603,176.800 108.894 C 176.800 109.185,177.160 109.683,177.600 110.000 C 178.040 110.317,178.400 110.831,178.400 111.141 C 178.400 111.452,178.716 111.997,179.103 112.353 C 179.489 112.709,180.060 113.495,180.370 114.100 C 180.681 114.705,181.085 115.200,181.268 115.200 C 181.450 115.200,181.600 115.425,181.601 115.700 C 181.601 115.975,182.141 116.830,182.800 117.600 C 183.459 118.370,183.999 119.185,183.999 119.412 C 184.000 119.638,184.360 120.083,184.800 120.400 C 185.240 120.717,185.600 121.257,185.600 121.600 C 185.600 121.943,185.960 122.483,186.400 122.800 C 186.840 123.117,187.200 123.567,187.200 123.800 C 187.200 124.033,187.560 124.483,188.000 124.800 C 188.440 125.117,188.800 125.657,188.800 126.000 C 188.800 126.343,189.160 126.883,189.600 127.200 C 190.040 127.517,190.400 128.031,190.400 128.341 C 190.400 128.652,190.715 129.197,191.100 129.553 C 191.485 129.909,192.143 130.875,192.563 131.700 C 192.983 132.525,193.478 133.200,193.663 133.200 C 193.848 133.200,194.000 133.436,194.000 133.725 C 194.000 134.013,194.315 134.598,194.700 135.025 C 195.085 135.451,195.655 136.295,195.968 136.900 C 196.280 137.505,196.685 138.000,196.868 138.000 C 197.050 138.000,197.200 138.270,197.200 138.600 C 197.200 138.930,197.338 139.200,197.506 139.200 C 197.674 139.200,198.256 139.920,198.800 140.800 C 199.344 141.680,199.926 142.400,200.094 142.400 C 200.262 142.400,200.400 142.643,200.400 142.941 C 200.400 143.238,200.940 144.046,201.600 144.737 C 202.260 145.428,202.800 146.225,202.800 146.508 C 202.800 146.791,203.160 147.283,203.600 147.600 C 204.040 147.917,204.400 148.457,204.400 148.800 C 204.400 149.143,204.760 149.683,205.200 150.000 C 205.640 150.317,206.000 150.857,206.000 151.200 C 206.000 151.543,206.360 152.083,206.800 152.400 C 207.240 152.717,207.600 153.121,207.600 153.297 C 207.600 153.702,209.572 156.748,210.500 157.775 C 210.885 158.202,211.200 158.747,211.200 158.987 C 211.200 159.227,211.560 159.683,212.000 160.000 C 212.440 160.317,212.800 160.815,212.800 161.106 C 212.800 161.926,214.668 163.600,215.582 163.600 C 216.032 163.600,216.400 163.424,216.400 163.209 C 216.400 162.993,217.349 161.868,218.508 160.709 C 219.667 159.549,220.882 158.222,221.208 157.760 C 221.534 157.299,222.745 155.873,223.900 154.591 C 225.055 153.310,226.000 152.114,226.000 151.933 C 226.000 151.753,227.080 150.508,228.400 149.168 C 229.720 147.827,230.800 146.556,230.800 146.343 C 230.800 146.130,231.880 144.896,233.200 143.600 C 234.520 142.304,235.600 141.127,235.600 140.983 C 235.600 140.839,236.095 140.244,236.700 139.660 C 237.999 138.408,239.956 136.096,240.800 134.817 C 241.130 134.316,242.345 132.914,243.500 131.700 C 244.655 130.486,245.600 129.333,245.600 129.138 C 245.600 128.942,246.545 127.806,247.700 126.611 C 251.722 122.453,253.436 120.554,254.406 119.181 C 254.943 118.422,255.747 117.415,256.191 116.944 C 258.393 114.614,259.600 113.134,259.600 112.764 C 259.600 112.540,260.680 111.296,262.000 110.000 C 263.320 108.704,264.400 107.546,264.400 107.425 C 264.400 107.304,265.480 106.108,266.800 104.768 C 268.120 103.427,269.200 102.170,269.200 101.974 C 269.200 101.779,270.190 100.596,271.400 99.347 C 272.610 98.098,273.600 96.951,273.600 96.799 C 273.600 96.361,276.926 92.503,280.605 88.672 C 281.488 87.752,282.656 86.370,283.201 85.600 C 283.745 84.830,285.138 83.251,286.295 82.091 C 287.453 80.932,288.400 79.826,288.400 79.634 C 288.400 79.442,288.895 78.741,289.500 78.076 C 292.315 74.985,293.200 73.959,293.200 73.789 C 293.200 73.688,294.280 72.508,295.600 71.168 C 296.920 69.827,298.000 68.562,298.000 68.356 C 298.000 68.151,298.971 67.012,300.157 65.825 C 301.344 64.639,302.643 63.113,303.044 62.434 L 303.772 61.200 314.735 61.200 C 327.132 61.200,326.273 60.841,322.700 64.523 C 321.655 65.600,320.800 66.642,320.800 66.838 C 320.800 67.034,319.720 68.292,318.400 69.632 C 317.080 70.973,316.000 72.238,316.000 72.444 C 316.000 72.649,315.055 73.777,313.900 74.951 C 312.745 76.124,311.234 77.785,310.542 78.642 C 309.851 79.499,308.726 80.783,308.042 81.496 C 307.359 82.209,306.800 82.959,306.800 83.161 C 306.800 83.364,305.720 84.627,304.400 85.968 C 303.080 87.308,302.000 88.563,302.000 88.756 C 302.000 88.949,300.875 90.284,299.500 91.722 C 295.563 95.839,293.104 98.670,292.425 99.864 C 292.081 100.470,290.765 101.999,289.500 103.261 C 288.235 104.523,287.200 105.756,287.200 106.000 C 287.200 106.244,286.120 107.504,284.800 108.800 C 283.480 110.096,282.400 111.252,282.400 111.369 C 282.400 111.486,281.410 112.604,280.200 113.853 C 278.990 115.102,278.000 116.257,278.000 116.420 C 278.000 116.582,277.505 117.259,276.900 117.924 C 273.857 121.266,273.200 122.054,273.200 122.365 C 273.200 122.551,272.075 123.885,270.700 125.329 C 265.824 130.449,264.559 131.853,263.592 133.219 C 263.054 133.978,262.070 135.157,261.407 135.839 C 259.484 137.812,258.400 139.174,258.400 139.615 C 258.400 139.841,257.320 141.065,256.000 142.337 C 254.680 143.609,253.600 144.785,253.600 144.951 C 253.600 145.116,252.740 146.095,251.689 147.126 C 250.638 148.157,249.339 149.630,248.802 150.400 C 248.265 151.170,247.184 152.430,246.400 153.200 C 245.616 153.970,244.536 155.230,244.001 156.000 C 243.465 156.770,242.321 158.160,241.459 159.088 C 240.597 160.017,239.607 161.187,239.260 161.688 C 238.913 162.190,237.767 163.443,236.714 164.474 C 235.661 165.505,234.800 166.519,234.800 166.728 C 234.800 166.936,233.630 168.312,232.200 169.785 C 230.770 171.258,229.600 172.620,229.600 172.812 C 229.600 173.005,228.722 174.040,227.648 175.114 C 224.804 177.958,224.819 180.185,227.700 182.847 C 228.085 183.203,228.400 183.748,228.400 184.059 C 228.400 184.369,228.760 184.883,229.200 185.200 C 229.640 185.517,230.000 185.973,230.000 186.213 C 230.000 186.453,230.315 186.998,230.700 187.425 C 231.085 187.851,231.655 188.695,231.968 189.300 C 232.280 189.905,232.685 190.400,232.868 190.400 C 233.050 190.400,233.200 190.630,233.200 190.912 C 233.200 191.193,233.560 191.683,234.000 192.000 C 234.440 192.317,234.800 192.809,234.800 193.092 C 234.800 193.375,235.340 194.172,236.000 194.863 C 236.660 195.554,237.200 196.322,237.200 196.571 C 237.200 196.820,237.560 197.283,238.000 197.600 C 238.440 197.917,238.800 198.457,238.800 198.800 C 238.800 199.143,239.160 199.683,239.600 200.000 C 240.040 200.317,240.400 200.831,240.400 201.141 C 240.400 201.452,240.719 201.997,241.109 202.353 C 241.499 202.709,242.015 203.450,242.256 204.000 C 242.496 204.550,243.347 205.857,244.146 206.903 C 244.946 207.950,245.600 208.946,245.600 209.115 C 245.600 209.285,245.960 209.683,246.400 210.000 C 246.840 210.317,247.200 210.857,247.200 211.200 C 247.200 211.543,247.560 212.083,248.000 212.400 C 248.440 212.717,248.800 213.231,248.800 213.541 C 248.800 213.852,249.116 214.397,249.503 214.753 C 249.889 215.109,250.460 215.895,250.770 216.500 C 251.081 217.105,251.485 217.600,251.668 217.600 C 251.850 217.600,252.000 217.825,252.001 218.100 C 252.001 218.375,252.541 219.230,253.200 220.000 C 253.859 220.770,254.399 221.585,254.399 221.812 C 254.400 222.038,254.760 222.483,255.200 222.800 C 255.640 223.117,256.000 223.567,256.000 223.800 C 256.000 224.033,256.360 224.483,256.800 224.800 C 257.240 225.117,257.600 225.697,257.600 226.088 C 257.600 226.480,257.753 226.800,257.939 226.800 C 258.126 226.800,258.603 227.520,259.000 228.400 C 259.397 229.280,259.862 230.000,260.034 230.000 C 260.206 230.000,260.453 230.338,260.584 230.751 C 260.716 231.164,261.267 232.019,261.811 232.651 C 262.354 233.283,262.799 233.985,262.800 234.212 C 262.800 234.438,263.160 234.883,263.600 235.200 C 264.040 235.517,264.400 236.031,264.400 236.341 C 264.400 236.652,264.716 237.197,265.103 237.553 C 265.489 237.909,266.060 238.695,266.370 239.300 C 266.681 239.905,267.085 240.400,267.268 240.400 C 267.450 240.400,267.600 240.630,267.600 240.912 C 267.600 241.193,267.960 241.683,268.400 242.000 C 268.840 242.317,269.200 242.857,269.200 243.200 C 269.200 243.543,269.560 244.083,270.000 244.400 C 270.440 244.717,270.800 245.180,270.800 245.429 C 270.800 245.678,271.340 246.446,272.000 247.137 C 272.660 247.828,273.200 248.625,273.200 248.908 C 273.200 249.191,273.560 249.683,274.000 250.000 C 274.440 250.317,274.800 250.808,274.800 251.090 C 274.800 251.373,275.643 252.818,276.674 254.302 C 277.705 255.786,278.920 257.540,279.374 258.199 C 279.828 258.859,280.515 259.690,280.900 260.046 C 281.285 260.402,281.600 260.948,281.600 261.259 C 281.600 261.569,281.960 262.083,282.400 262.400 C 282.840 262.717,283.200 263.257,283.200 263.600 C 283.200 263.943,283.560 264.483,284.000 264.800 C 284.440 265.117,284.800 265.657,284.800 266.000 C 284.800 266.343,285.160 266.883,285.600 267.200 C 286.040 267.517,286.400 267.962,286.401 268.188 C 286.401 268.415,286.941 269.230,287.600 270.000 C 288.259 270.770,288.799 271.585,288.799 271.812 C 288.800 272.038,289.160 272.483,289.600 272.800 C 290.040 273.117,290.400 273.607,290.400 273.888 C 290.400 274.170,290.567 274.400,290.771 274.400 C 290.975 274.400,291.460 275.120,291.848 276.000 C 292.236 276.880,292.677 277.600,292.828 277.600 C 292.979 277.600,293.327 278.140,293.600 278.800 C 293.873 279.460,294.243 280.000,294.422 280.000 C 294.600 280.000,294.853 280.338,294.984 280.751 C 295.116 281.164,295.667 282.019,296.211 282.651 C 296.754 283.283,297.199 283.985,297.200 284.212 C 297.200 284.438,297.560 284.883,298.000 285.200 C 298.440 285.517,298.800 286.031,298.800 286.341 C 298.800 286.652,299.116 287.197,299.503 287.553 C 299.889 287.909,300.460 288.695,300.770 289.300 C 301.081 289.905,301.485 290.400,301.668 290.400 C 301.850 290.400,302.000 290.630,302.000 290.912 C 302.000 291.193,302.360 291.683,302.800 292.000 C 303.240 292.317,303.600 292.857,303.600 293.200 C 303.600 293.543,303.960 294.083,304.400 294.400 C 304.840 294.717,305.200 295.162,305.201 295.388 C 305.201 295.615,305.741 296.430,306.400 297.200 C 307.059 297.970,307.599 298.825,307.599 299.100 C 307.600 299.375,307.753 299.600,307.939 299.600 C 308.126 299.600,308.603 300.320,309.000 301.200 C 309.397 302.080,309.862 302.800,310.034 302.800 C 310.206 302.800,310.460 303.159,310.599 303.598 C 310.738 304.036,311.072 304.621,311.340 304.898 C 311.609 305.174,312.452 306.296,313.214 307.391 C 313.976 308.485,314.915 309.734,315.300 310.166 C 315.685 310.598,316.000 311.147,316.000 311.387 C 316.000 311.627,316.360 312.083,316.800 312.400 C 317.240 312.717,317.600 313.257,317.600 313.600 C 317.600 313.943,317.960 314.483,318.400 314.800 C 318.840 315.117,319.200 315.631,319.200 315.941 C 319.200 316.252,319.516 316.797,319.903 317.153 C 320.289 317.509,320.860 318.295,321.170 318.900 C 321.481 319.505,321.885 320.000,322.068 320.000 C 322.250 320.000,322.400 320.270,322.400 320.600 C 322.400 320.930,322.580 321.200,322.800 321.200 C 323.020 321.200,323.200 321.470,323.200 321.800 C 323.200 322.130,323.352 322.400,323.537 322.400 C 323.722 322.400,324.213 323.030,324.628 323.800 C 325.043 324.570,325.521 325.200,325.691 325.200 C 325.861 325.200,326.000 325.436,326.000 325.725 C 326.000 326.013,326.360 326.636,326.800 327.108 C 327.240 327.580,327.600 328.120,327.600 328.308 C 327.600 328.496,327.915 328.998,328.300 329.425 C 328.685 329.851,329.255 330.695,329.568 331.300 C 329.880 331.905,330.285 332.400,330.468 332.400 C 330.650 332.400,330.800 332.643,330.800 332.941 C 330.800 333.238,331.340 334.046,332.000 334.737 C 332.660 335.428,333.200 336.225,333.200 336.508 C 333.200 336.791,333.560 337.283,334.000 337.600 C 334.440 337.917,334.800 338.317,334.800 338.488 C 334.800 338.660,317.136 338.800,295.547 338.800 L 256.293 338.800 255.347 337.700 C 254.827 337.095,254.401 336.415,254.400 336.188 C 254.400 335.962,254.040 335.517,253.600 335.200 C 253.160 334.883,252.800 334.343,252.800 334.000 C 252.800 333.657,252.440 333.117,252.000 332.800 C 251.560 332.483,251.200 331.969,251.200 331.659 C 251.200 331.348,250.884 330.803,250.497 330.447 C 250.111 330.091,249.540 329.305,249.230 328.700 C 248.919 328.095,248.515 327.600,248.332 327.600 C 248.150 327.600,248.000 327.418,248.000 327.196 C 248.000 326.974,247.460 326.228,246.800 325.537 C 246.140 324.846,245.600 324.078,245.600 323.829 C 245.600 323.580,245.240 323.117,244.800 322.800 C 244.360 322.483,244.000 321.943,244.000 321.600 C 244.000 321.257,243.640 320.717,243.200 320.400 C 242.760 320.083,242.400 319.586,242.400 319.295 C 242.400 319.004,242.219 318.549,241.999 318.283 C 241.225 317.353,238.800 313.617,238.800 313.357 C 238.800 313.212,238.484 312.803,238.097 312.447 C 237.711 312.091,237.140 311.305,236.830 310.700 C 236.519 310.095,236.115 309.600,235.932 309.600 C 235.750 309.600,235.600 309.370,235.600 309.088 C 235.600 308.807,235.240 308.317,234.800 308.000 C 234.360 307.683,234.000 307.143,234.000 306.800 C 234.000 306.457,233.640 305.917,233.200 305.600 C 232.760 305.283,232.400 304.743,232.400 304.400 C 232.400 304.057,232.040 303.517,231.600 303.200 C 231.160 302.883,230.800 302.438,230.799 302.212 C 230.799 301.985,230.259 301.170,229.600 300.400 C 228.941 299.630,228.401 298.815,228.401 298.588 C 228.400 298.362,228.040 297.917,227.600 297.600 C 227.160 297.283,226.800 296.743,226.800 296.400 C 226.800 296.057,226.440 295.517,226.000 295.200 C 225.560 294.883,225.200 294.479,225.200 294.303 C 225.200 293.929,223.231 290.843,222.501 290.071 C 222.225 289.781,222.000 289.404,222.000 289.234 C 222.000 289.064,221.550 288.401,221.000 287.762 C 220.451 287.123,220.001 286.415,220.000 286.188 C 220.000 285.962,219.640 285.517,219.200 285.200 C 218.760 284.883,218.400 284.343,218.400 284.000 C 218.400 283.657,218.040 283.117,217.600 282.800 C 217.160 282.483,216.800 281.969,216.800 281.659 C 216.800 281.348,216.484 280.803,216.097 280.447 C 215.711 280.091,215.140 279.305,214.830 278.700 C 214.519 278.095,214.115 277.600,213.932 277.600 C 213.750 277.600,213.600 277.370,213.600 277.088 C 213.600 276.807,213.240 276.317,212.800 276.000 C 212.360 275.683,212.000 275.220,212.000 274.971 C 212.000 274.722,211.460 273.954,210.800 273.263 C 210.140 272.572,209.600 271.736,209.600 271.404 C 209.600 271.072,209.433 270.800,209.229 270.800 C 209.025 270.800,208.540 270.080,208.152 269.200 C 207.764 268.320,207.323 267.600,207.172 267.600 C 207.021 267.600,206.673 267.060,206.400 266.400 C 206.127 265.740,205.767 265.200,205.600 265.200 C 205.433 265.200,205.073 264.660,204.800 264.000 C 204.527 263.340,204.187 262.800,204.046 262.800 C 203.905 262.800,203.344 262.080,202.800 261.200 C 202.256 260.320,201.674 259.600,201.506 259.600 C 201.338 259.600,201.200 259.370,201.200 259.088 C 201.200 258.807,200.840 258.317,200.400 258.000 C 199.960 257.683,199.600 257.143,199.600 256.800 C 199.600 256.457,199.240 255.917,198.800 255.600 C 198.360 255.283,198.000 254.743,198.000 254.400 C 198.000 254.057,197.640 253.517,197.200 253.200 C 196.760 252.883,196.400 252.343,196.400 252.000 C 196.400 251.657,196.040 251.117,195.600 250.800 C 195.160 250.483,194.800 250.038,194.799 249.812 C 194.799 249.585,194.259 248.770,193.600 248.000 C 192.941 247.230,192.401 246.390,192.401 246.133 C 192.400 245.877,192.263 245.607,192.095 245.533 C 191.928 245.460,191.073 244.277,190.195 242.903 C 189.318 241.530,188.465 240.405,188.300 240.403 C 188.135 240.402,188.000 240.175,188.000 239.900 C 187.999 239.625,187.549 238.877,187.000 238.238 C 186.450 237.599,186.000 236.952,186.000 236.800 C 186.000 236.648,185.550 236.001,185.000 235.362 C 184.451 234.723,184.001 234.015,184.000 233.788 C 184.000 233.562,183.640 233.117,183.200 232.800 C 182.760 232.483,182.400 231.980,182.400 231.683 C 182.400 231.089,181.448 230.000,180.929 230.000 C 180.332 230.001,178.592 231.762,176.583 234.400 C 175.493 235.830,173.926 237.697,173.101 238.548 C 172.275 239.400,171.600 240.247,171.600 240.431 C 171.600 240.615,170.655 241.730,169.500 242.907 C 166.474 245.991,162.766 250.161,162.287 251.016 C 162.061 251.420,161.319 252.319,160.638 253.014 C 158.875 254.813,157.878 256.061,157.281 257.215 C 156.995 257.768,156.275 258.548,155.681 258.949 C 155.086 259.350,153.970 260.516,153.200 261.539 C 152.430 262.563,151.164 264.030,150.387 264.800 C 149.610 265.570,148.532 266.830,147.993 267.600 C 147.453 268.370,146.243 269.770,145.305 270.711 C 144.367 271.651,143.600 272.576,143.600 272.765 C 143.600 272.955,142.655 274.107,141.500 275.327 C 139.041 277.923,138.000 279.134,138.000 279.402 C 138.000 279.508,136.920 280.692,135.600 282.032 C 134.280 283.373,133.200 284.646,133.200 284.861 C 133.200 285.076,132.340 286.095,131.289 287.126 C 130.238 288.157,128.958 289.596,128.445 290.323 C 127.932 291.051,126.936 292.221,126.231 292.923 C 125.526 293.626,124.515 294.830,123.985 295.600 C 123.456 296.370,122.162 297.843,121.111 298.874 C 120.060 299.905,119.200 300.919,119.200 301.128 C 119.200 301.336,118.030 302.712,116.600 304.185 C 115.170 305.658,114.000 307.021,114.000 307.215 C 114.000 307.409,113.260 308.250,112.355 309.084 C 111.450 309.918,110.163 311.392,109.495 312.359 C 108.827 313.327,107.407 315.010,106.340 316.100 C 105.273 317.189,104.400 318.253,104.400 318.463 C 104.400 318.673,103.320 319.904,102.000 321.200 C 100.680 322.496,99.600 323.718,99.600 323.917 C 99.600 324.116,98.655 325.255,97.500 326.449 C 96.345 327.643,94.680 329.497,93.800 330.569 C 92.920 331.641,91.795 332.933,91.300 333.441 C 90.805 333.948,90.400 334.523,90.400 334.718 C 90.400 334.913,89.608 335.911,88.640 336.936 L 86.879 338.800 76.440 338.800 C 70.698 338.800,66.000 338.693,66.000 338.562 C 66.000 338.085,67.805 335.807,69.878 333.666 C 71.045 332.461,72.000 331.343,72.000 331.180 C 72.000 331.018,72.495 330.341,73.100 329.676 C 75.915 326.585,76.800 325.559,76.800 325.389 C 76.800 325.288,77.880 324.108,79.200 322.768 C 80.520 321.427,81.600 320.154,81.600 319.939 C 81.600 319.724,82.460 318.705,83.511 317.674 C 84.562 316.643,85.860 315.170,86.396 314.400 C 86.931 313.630,87.834 312.550,88.401 312.000 C 88.969 311.450,89.966 310.280,90.617 309.400 C 91.268 308.520,92.655 306.957,93.700 305.926 C 94.745 304.895,95.600 303.860,95.600 303.626 C 95.600 303.392,95.780 303.200,96.000 303.200 C 96.220 303.200,96.400 303.021,96.400 302.803 C 96.400 302.584,97.480 301.308,98.800 299.968 C 100.120 298.627,101.200 297.362,101.200 297.156 C 101.200 296.951,102.190 295.793,103.400 294.583 C 104.610 293.373,105.605 292.252,105.611 292.091 C 105.617 291.931,106.697 290.645,108.011 289.233 C 109.325 287.821,110.400 286.506,110.400 286.310 C 110.400 286.115,111.480 284.896,112.800 283.600 C 114.120 282.304,115.200 281.070,115.200 280.857 C 115.200 280.644,116.280 279.373,117.600 278.032 C 118.920 276.692,120.000 275.483,120.000 275.346 C 120.000 275.209,121.170 273.857,122.600 272.341 C 124.030 270.825,125.200 269.410,125.200 269.195 C 125.200 268.981,126.280 267.708,127.600 266.368 C 128.920 265.027,130.000 263.762,130.000 263.556 C 130.000 263.351,130.945 262.215,132.100 261.031 C 135.008 258.052,138.929 253.662,139.351 252.912 C 139.802 252.111,141.058 250.626,142.700 248.952 C 143.415 248.223,144.000 247.456,144.000 247.248 C 144.000 247.040,145.080 245.773,146.400 244.432 C 147.720 243.092,148.800 241.901,148.800 241.787 C 148.800 241.672,149.587 240.792,150.548 239.831 C 151.509 238.869,152.814 237.396,153.448 236.556 C 154.082 235.717,155.335 234.257,156.234 233.313 C 157.132 232.368,158.122 231.101,158.434 230.498 C 158.745 229.894,160.035 228.375,161.300 227.122 C 162.565 225.869,163.600 224.740,163.600 224.612 C 163.600 224.484,164.365 223.598,165.300 222.644 C 167.273 220.631,168.400 219.289,168.400 218.956 C 168.400 218.827,168.940 218.217,169.600 217.600 C 171.172 216.131,171.172 214.637,169.600 212.800 C 168.941 212.030,168.401 211.215,168.401 210.988 C 168.400 210.762,168.040 210.317,167.600 210.000 C 167.160 209.683,166.800 209.233,166.800 209.000 C 166.800 208.767,166.440 208.317,166.000 208.000 C 165.560 207.683,165.200 207.143,165.200 206.800 C 165.200 206.457,164.840 205.917,164.400 205.600 C 163.960 205.283,163.600 204.743,163.600 204.400 C 163.600 204.057,163.240 203.517,162.800 203.200 C 162.360 202.883,162.000 202.343,162.000 202.000 C 162.000 201.657,161.640 201.117,161.200 200.800 C 160.760 200.483,160.400 200.027,160.400 199.787 C 160.400 199.547,160.041 198.966,159.603 198.495 C 158.760 197.590,157.453 195.546,156.847 194.184 C 156.647 193.735,156.195 193.127,155.842 192.835 C 155.489 192.542,155.200 192.094,155.200 191.839 C 155.200 191.585,154.840 191.117,154.400 190.800 C 153.960 190.483,153.600 189.943,153.600 189.600 C 153.600 189.257,153.240 188.717,152.800 188.400 C 152.360 188.083,152.000 187.638,151.999 187.412 C 151.999 187.185,151.459 186.370,150.800 185.600 C 150.141 184.830,149.601 184.015,149.601 183.788 C 149.600 183.562,149.240 183.117,148.800 182.800 C 148.360 182.483,148.000 181.943,148.000 181.600 C 148.000 181.257,147.640 180.717,147.200 180.400 C 146.760 180.083,146.400 179.543,146.400 179.200 C 146.400 178.857,146.040 178.317,145.600 178.000 C 145.160 177.683,144.800 177.193,144.800 176.912 C 144.800 176.630,144.650 176.400,144.468 176.400 C 144.285 176.400,143.880 175.905,143.568 175.300 C 143.255 174.695,142.595 173.787,142.100 173.282 C 141.605 172.777,141.200 172.136,141.200 171.857 C 141.200 171.579,140.885 171.002,140.500 170.575 C 140.115 170.149,139.545 169.305,139.232 168.700 C 138.920 168.095,138.515 167.600,138.332 167.600 C 138.150 167.600,138.000 167.364,138.000 167.075 C 138.000 166.787,137.685 166.202,137.300 165.775 C 136.915 165.349,136.345 164.505,136.032 163.900 C 135.720 163.295,135.315 162.800,135.132 162.800 C 134.950 162.800,134.800 162.530,134.800 162.200 C 134.800 161.870,134.620 161.600,134.400 161.600 C 134.180 161.600,134.000 161.422,134.000 161.205 C 134.000 160.784,133.174 159.693,131.700 158.168 C 131.205 157.656,130.800 156.998,130.800 156.706 C 130.800 156.415,130.440 155.917,130.000 155.600 C 129.560 155.283,129.200 154.743,129.200 154.400 C 129.200 154.057,128.840 153.517,128.400 153.200 C 127.960 152.883,127.600 152.343,127.600 152.000 C 127.600 151.657,127.240 151.117,126.800 150.800 C 126.360 150.483,126.000 149.903,126.000 149.512 C 126.000 149.120,125.858 148.800,125.684 148.800 C 125.510 148.800,124.842 147.900,124.200 146.800 C 123.558 145.700,122.890 144.800,122.716 144.800 C 122.542 144.800,122.400 144.558,122.400 144.262 C 122.400 143.966,122.040 143.398,121.600 143.000 C 121.160 142.602,120.800 142.074,120.800 141.826 C 120.800 141.579,120.440 141.117,120.000 140.800 C 119.560 140.483,119.200 139.969,119.200 139.659 C 119.200 139.348,118.884 138.803,118.497 138.447 C 118.111 138.091,117.540 137.305,117.230 136.700 C 116.919 136.095,116.515 135.600,116.332 135.600 C 116.150 135.600,116.000 135.357,116.000 135.059 C 116.000 134.762,115.460 133.954,114.800 133.263 C 114.140 132.572,113.600 131.775,113.600 131.492 C 113.600 131.209,113.240 130.717,112.800 130.400 C 112.360 130.083,112.000 129.543,112.000 129.200 C 112.000 128.857,111.640 128.317,111.200 128.000 C 110.760 127.683,110.400 127.276,110.400 127.095 C 110.400 126.914,110.040 126.380,109.600 125.908 C 109.160 125.436,108.800 124.813,108.800 124.525 C 108.800 124.236,108.642 124.000,108.449 124.000 C 108.255 124.000,107.864 123.437,107.579 122.748 C 107.293 122.060,106.642 121.078,106.130 120.566 C 105.619 120.055,105.200 119.398,105.200 119.106 C 105.200 118.815,104.840 118.317,104.400 118.000 C 103.960 117.683,103.600 117.169,103.600 116.859 C 103.600 116.548,103.284 116.003,102.897 115.647 C 102.511 115.291,101.940 114.505,101.630 113.900 C 101.319 113.295,100.915 112.800,100.732 112.800 C 100.550 112.800,100.400 112.530,100.400 112.200 C 100.400 111.870,100.220 111.600,100.000 111.600 C 99.780 111.600,99.600 111.422,99.600 111.205 C 99.600 110.987,99.285 110.432,98.900 109.971 C 98.515 109.510,97.795 108.653,97.300 108.066 C 96.806 107.480,96.401 106.815,96.400 106.588 C 96.400 106.362,96.040 105.917,95.600 105.600 C 95.160 105.283,94.800 104.743,94.800 104.400 C 94.800 104.057,94.440 103.517,94.000 103.200 C 93.560 102.883,93.200 102.343,93.200 102.000 C 93.200 101.657,92.840 101.117,92.400 100.800 C 91.960 100.483,91.600 99.994,91.600 99.713 C 91.600 99.174,88.827 95.095,88.305 94.867 C 88.137 94.793,88.000 94.506,88.000 94.229 C 88.000 93.951,87.640 93.398,87.200 93.000 C 86.760 92.602,86.400 92.074,86.400 91.826 C 86.400 91.579,86.040 91.117,85.600 90.800 C 85.160 90.483,84.800 89.943,84.800 89.600 C 84.800 89.257,84.440 88.717,84.000 88.400 C 83.560 88.083,83.200 87.543,83.200 87.200 C 83.200 86.857,82.840 86.317,82.400 86.000 C 81.960 85.683,81.600 85.238,81.599 85.012 C 81.599 84.785,81.059 83.970,80.400 83.200 C 79.741 82.430,79.201 81.615,79.201 81.388 C 79.200 81.162,78.840 80.717,78.400 80.400 C 77.960 80.083,77.600 79.543,77.600 79.200 C 77.600 78.857,77.240 78.317,76.800 78.000 C 76.360 77.683,76.000 77.193,76.000 76.912 C 76.000 76.630,75.847 76.400,75.661 76.400 C 75.474 76.400,74.997 75.680,74.600 74.800 C 74.203 73.920,73.738 73.200,73.566 73.200 C 73.394 73.200,73.147 72.862,73.016 72.449 C 72.884 72.036,72.333 71.181,71.789 70.549 C 71.246 69.917,70.801 69.215,70.800 68.988 C 70.800 68.762,70.440 68.317,70.000 68.000 C 69.560 67.683,69.200 67.143,69.200 66.800 C 69.200 66.457,68.840 65.917,68.400 65.600 C 67.960 65.283,67.600 64.769,67.600 64.459 C 67.600 64.148,67.273 63.603,66.872 63.247 C 64.426 61.072,62.061 61.200,104.740 61.200 L 143.856 61.200 144.728 62.203 M95.867 77.867 C 95.323 78.410,95.625 79.841,96.400 80.400 C 96.840 80.717,97.200 81.257,97.200 81.600 C 97.200 81.943,97.560 82.483,98.000 82.800 C 98.440 83.117,98.800 83.562,98.801 83.788 C 98.801 84.015,99.341 84.830,100.000 85.600 C 100.659 86.370,101.199 87.185,101.199 87.412 C 101.200 87.638,101.560 88.083,102.000 88.400 C 102.440 88.717,102.800 89.179,102.800 89.426 C 102.800 89.674,103.160 90.202,103.600 90.600 C 104.040 90.998,104.400 91.526,104.400 91.774 C 104.400 92.021,104.760 92.483,105.200 92.800 C 105.640 93.117,106.000 93.580,106.000 93.829 C 106.000 94.078,106.540 94.846,107.200 95.537 C 107.860 96.228,108.400 96.966,108.400 97.179 C 108.400 97.598,109.917 100.000,111.192 101.600 C 111.631 102.150,111.992 102.759,111.995 102.953 C 111.998 103.147,112.316 103.597,112.703 103.953 C 113.089 104.309,113.660 105.095,113.970 105.700 C 114.281 106.305,114.685 106.800,114.868 106.800 C 115.050 106.800,115.200 107.030,115.200 107.312 C 115.200 107.593,115.560 108.083,116.000 108.400 C 116.440 108.717,116.800 109.180,116.800 109.429 C 116.800 109.678,117.340 110.446,118.000 111.137 C 118.660 111.828,119.200 112.625,119.200 112.908 C 119.200 113.191,119.560 113.683,120.000 114.000 C 120.440 114.317,120.800 114.857,120.800 115.200 C 120.800 115.543,121.160 116.083,121.600 116.400 C 122.040 116.717,122.400 117.180,122.400 117.429 C 122.400 117.678,122.940 118.446,123.600 119.137 C 124.260 119.828,124.800 120.586,124.800 120.823 C 124.800 121.234,126.444 123.613,127.500 124.729 C 127.775 125.019,128.000 125.396,128.000 125.566 C 128.000 125.736,128.450 126.399,129.000 127.038 C 129.549 127.677,129.999 128.385,130.000 128.612 C 130.000 128.838,130.360 129.283,130.800 129.600 C 131.240 129.917,131.600 130.457,131.600 130.800 C 131.600 131.143,131.960 131.683,132.400 132.000 C 132.840 132.317,133.200 132.762,133.201 132.988 C 133.201 133.215,133.741 134.030,134.400 134.800 C 135.059 135.570,135.599 136.359,135.599 136.553 C 135.600 136.747,135.916 137.197,136.303 137.553 C 136.689 137.909,137.260 138.695,137.570 139.300 C 137.881 139.905,138.285 140.400,138.468 140.400 C 138.650 140.400,138.800 140.582,138.800 140.804 C 138.800 141.026,139.340 141.772,140.000 142.463 C 140.660 143.154,141.200 143.962,141.200 144.259 C 141.200 144.557,141.353 144.800,141.539 144.800 C 141.726 144.800,142.203 145.520,142.600 146.400 C 142.997 147.280,143.462 148.000,143.634 148.000 C 143.806 148.000,144.062 148.366,144.204 148.813 C 144.346 149.260,144.898 150.062,145.431 150.595 C 145.964 151.128,146.400 151.776,146.400 152.035 C 146.400 152.294,146.716 152.797,147.103 153.153 C 147.489 153.509,148.060 154.295,148.370 154.900 C 148.681 155.505,149.085 156.000,149.268 156.000 C 149.450 156.000,149.600 156.230,149.600 156.512 C 149.600 156.793,149.960 157.283,150.400 157.600 C 150.840 157.917,151.200 158.380,151.200 158.629 C 151.200 158.878,151.740 159.646,152.400 160.337 C 153.060 161.028,153.600 161.825,153.600 162.108 C 153.600 162.391,153.960 162.883,154.400 163.200 C 154.840 163.517,155.200 164.057,155.200 164.400 C 155.200 164.743,155.560 165.283,156.000 165.600 C 156.440 165.917,156.800 166.407,156.800 166.688 C 156.800 166.970,156.980 167.200,157.200 167.200 C 157.420 167.200,157.600 167.470,157.600 167.800 C 157.600 168.130,157.768 168.400,157.973 168.400 C 158.178 168.400,158.447 168.719,158.571 169.108 C 158.831 169.927,162.351 174.979,163.572 176.286 C 164.027 176.773,164.400 177.408,164.400 177.697 C 164.400 177.987,164.760 178.483,165.200 178.800 C 165.640 179.117,166.000 179.609,166.000 179.892 C 166.000 180.175,166.540 180.972,167.200 181.663 C 167.860 182.354,168.400 183.122,168.400 183.371 C 168.400 183.620,168.760 184.083,169.200 184.400 C 169.640 184.717,170.000 185.257,170.000 185.600 C 170.000 185.943,170.360 186.483,170.800 186.800 C 171.240 187.117,171.600 187.562,171.600 187.788 C 171.601 188.015,172.006 188.680,172.500 189.266 C 172.995 189.853,173.724 190.720,174.120 191.194 C 174.515 191.667,175.134 192.672,175.494 193.427 C 175.854 194.182,176.295 194.800,176.474 194.800 C 176.653 194.800,176.800 195.025,176.800 195.300 C 176.801 195.575,177.251 196.323,177.800 196.962 C 178.350 197.601,178.800 198.268,178.800 198.444 C 178.800 198.620,179.250 199.214,179.800 199.764 C 180.350 200.314,180.800 200.976,180.800 201.235 C 180.800 201.494,181.116 201.997,181.503 202.353 C 181.889 202.709,182.460 203.495,182.770 204.100 C 183.081 204.705,183.485 205.200,183.668 205.200 C 183.850 205.200,184.000 205.406,184.000 205.657 C 184.000 205.908,184.540 206.629,185.200 207.260 C 185.860 207.891,186.400 208.636,186.400 208.915 C 186.400 209.195,186.760 209.683,187.200 210.000 C 187.640 210.317,188.000 210.857,188.000 211.200 C 188.000 211.543,188.360 212.083,188.800 212.400 C 189.240 212.717,189.600 213.215,189.600 213.506 C 189.600 213.798,190.005 214.460,190.500 214.978 C 190.995 215.496,191.940 216.846,192.600 217.979 C 193.260 219.112,194.131 220.435,194.535 220.919 C 194.940 221.404,195.563 222.295,195.921 222.900 C 196.280 223.505,196.714 224.000,196.886 224.000 C 197.059 224.000,197.200 224.230,197.200 224.512 C 197.200 224.793,197.560 225.283,198.000 225.600 C 198.440 225.917,198.800 226.457,198.800 226.800 C 198.800 227.143,199.160 227.683,199.600 228.000 C 200.040 228.317,200.400 228.809,200.400 229.092 C 200.400 229.375,200.940 230.172,201.600 230.863 C 202.260 231.554,202.800 232.322,202.800 232.571 C 202.800 232.820,203.160 233.283,203.600 233.600 C 204.040 233.917,204.400 234.431,204.400 234.741 C 204.400 235.052,204.716 235.597,205.103 235.953 C 205.489 236.309,206.060 237.095,206.370 237.700 C 206.681 238.305,207.085 238.800,207.268 238.800 C 207.450 238.800,207.600 238.993,207.600 239.229 C 207.600 239.464,207.825 239.908,208.100 240.215 C 208.994 241.212,209.390 241.781,209.968 242.900 C 210.280 243.505,210.685 244.000,210.868 244.000 C 211.050 244.000,211.200 244.225,211.201 244.500 C 211.201 244.775,211.741 245.630,212.400 246.400 C 213.059 247.170,213.599 247.985,213.599 248.212 C 213.600 248.438,213.960 248.883,214.400 249.200 C 214.840 249.517,215.200 250.057,215.200 250.400 C 215.200 250.743,215.560 251.283,216.000 251.600 C 216.440 251.917,216.800 252.362,216.800 252.588 C 216.801 252.815,217.266 253.540,217.835 254.200 C 218.404 254.860,219.163 255.895,219.521 256.500 C 219.879 257.105,220.314 257.600,220.486 257.600 C 220.659 257.600,220.800 257.830,220.800 258.112 C 220.800 258.393,221.160 258.883,221.600 259.200 C 222.040 259.517,222.400 260.057,222.400 260.400 C 222.400 260.743,222.760 261.283,223.200 261.600 C 223.640 261.917,224.000 262.345,224.000 262.551 C 224.000 262.756,224.409 263.481,224.908 264.162 C 225.408 264.843,226.068 265.895,226.376 266.500 C 226.683 267.105,227.063 267.600,227.219 267.600 C 227.375 267.600,227.727 268.140,228.000 268.800 C 228.273 269.460,228.613 270.000,228.754 270.000 C 228.895 270.000,229.456 270.720,230.000 271.600 C 230.544 272.480,231.126 273.200,231.294 273.200 C 231.462 273.200,231.600 273.430,231.600 273.712 C 231.600 273.993,231.960 274.483,232.400 274.800 C 232.840 275.117,233.200 275.657,233.200 276.000 C 233.200 276.343,233.560 276.883,234.000 277.200 C 234.440 277.517,234.800 277.980,234.800 278.229 C 234.800 278.478,235.340 279.246,236.000 279.937 C 236.660 280.628,237.200 281.425,237.200 281.708 C 237.200 281.991,237.560 282.483,238.000 282.800 C 238.440 283.117,238.800 283.657,238.800 284.000 C 238.800 284.343,239.160 284.883,239.600 285.200 C 240.040 285.517,240.400 285.973,240.400 286.213 C 240.400 286.453,240.718 286.998,241.106 287.425 C 241.495 287.851,242.399 289.122,243.116 290.250 C 243.832 291.377,244.774 292.709,245.209 293.211 C 245.644 293.712,246.000 294.247,246.000 294.399 C 246.000 294.551,246.450 295.199,247.000 295.838 C 247.549 296.477,247.999 297.185,248.000 297.412 C 248.000 297.638,248.360 298.083,248.800 298.400 C 249.240 298.717,249.600 299.257,249.600 299.600 C 249.600 299.943,249.960 300.483,250.400 300.800 C 250.840 301.117,251.200 301.562,251.201 301.788 C 251.201 302.015,251.741 302.830,252.400 303.600 C 253.059 304.370,253.599 305.185,253.599 305.412 C 253.600 305.638,253.960 306.083,254.400 306.400 C 254.840 306.717,255.200 307.167,255.200 307.400 C 255.200 307.633,255.560 308.083,256.000 308.400 C 256.440 308.717,256.800 309.215,256.800 309.506 C 256.800 309.798,257.219 310.455,257.730 310.966 C 258.242 311.478,258.893 312.460,259.179 313.148 C 259.464 313.837,259.855 314.400,260.049 314.400 C 260.242 314.400,260.400 314.625,260.400 314.900 C 260.401 315.175,260.851 315.923,261.400 316.562 C 261.950 317.201,262.400 317.868,262.400 318.044 C 262.400 318.220,262.850 318.814,263.400 319.364 C 263.950 319.914,264.400 320.576,264.400 320.835 C 264.400 321.095,264.895 321.733,265.500 322.253 L 266.600 323.199 284.726 323.200 C 296.457 323.200,303.126 323.054,303.626 322.786 C 304.627 322.250,304.615 321.132,303.600 320.400 C 303.160 320.083,302.800 319.638,302.800 319.412 C 302.799 319.185,302.349 318.477,301.800 317.838 C 301.250 317.199,300.800 316.532,300.800 316.356 C 300.800 316.180,300.350 315.586,299.800 315.036 C 299.250 314.486,298.800 313.824,298.800 313.565 C 298.800 313.306,298.484 312.803,298.097 312.447 C 297.711 312.091,297.140 311.305,296.830 310.700 C 296.519 310.095,296.115 309.600,295.932 309.600 C 295.750 309.600,295.600 309.402,295.600 309.160 C 295.600 308.919,295.060 308.217,294.400 307.600 C 293.740 306.983,293.200 306.231,293.200 305.928 C 293.200 305.625,292.840 305.117,292.400 304.800 C 291.960 304.483,291.600 303.981,291.600 303.685 C 291.600 303.389,291.150 302.557,290.600 301.836 C 290.050 301.114,289.600 300.383,289.600 300.209 C 289.600 300.036,289.284 299.603,288.897 299.247 C 288.511 298.891,287.940 298.105,287.630 297.500 C 287.319 296.895,286.915 296.400,286.732 296.400 C 286.550 296.400,286.400 296.175,286.400 295.900 C 286.399 295.420,285.531 294.261,283.397 291.893 C 282.849 291.284,282.400 290.559,282.400 290.281 C 282.400 290.004,282.040 289.517,281.600 289.200 C 281.160 288.883,280.800 288.343,280.800 288.000 C 280.800 287.657,280.440 287.117,280.000 286.800 C 279.560 286.483,279.200 286.020,279.200 285.771 C 279.200 285.522,278.660 284.754,278.000 284.063 C 277.340 283.372,276.800 282.575,276.800 282.292 C 276.800 282.009,276.440 281.517,276.000 281.200 C 275.560 280.883,275.200 280.386,275.200 280.095 C 275.200 279.804,275.022 279.349,274.805 279.083 C 273.555 277.553,271.600 274.749,271.600 274.485 C 271.600 274.315,271.240 273.917,270.800 273.600 C 270.360 273.283,270.000 272.743,270.000 272.400 C 270.000 272.057,269.640 271.517,269.200 271.200 C 268.760 270.883,268.400 270.438,268.399 270.212 C 268.399 269.985,267.859 269.170,267.200 268.400 C 266.541 267.630,266.001 266.815,266.001 266.588 C 266.000 266.362,265.640 265.917,265.200 265.600 C 264.760 265.283,264.400 264.743,264.400 264.400 C 264.400 264.057,264.040 263.517,263.600 263.200 C 263.160 262.883,262.800 262.393,262.800 262.112 C 262.800 261.830,262.620 261.600,262.400 261.600 C 262.180 261.600,262.000 261.370,262.000 261.088 C 262.000 260.807,261.640 260.317,261.200 260.000 C 260.760 259.683,260.400 259.233,260.400 259.000 C 260.400 258.767,260.040 258.317,259.600 258.000 C 259.160 257.683,258.800 257.103,258.800 256.712 C 258.800 256.320,258.642 256.000,258.449 256.000 C 258.255 256.000,257.864 255.437,257.579 254.748 C 257.293 254.060,256.642 253.078,256.130 252.566 C 255.619 252.055,255.200 251.424,255.200 251.165 C 255.200 250.906,254.884 250.403,254.497 250.047 C 254.111 249.691,253.540 248.905,253.230 248.300 C 252.919 247.695,252.515 247.200,252.332 247.200 C 252.150 247.200,252.000 246.957,252.000 246.659 C 252.000 246.362,251.460 245.554,250.800 244.863 C 250.140 244.172,249.600 243.427,249.600 243.207 C 249.600 242.987,249.240 242.582,248.800 242.307 C 248.360 242.032,248.000 241.531,248.000 241.192 C 248.000 240.854,247.640 240.317,247.200 240.000 C 246.760 239.683,246.400 239.143,246.400 238.800 C 246.400 238.457,246.040 237.917,245.600 237.600 C 245.160 237.283,244.800 236.820,244.800 236.571 C 244.800 236.322,244.260 235.554,243.600 234.863 C 242.940 234.172,242.400 233.336,242.400 233.004 C 242.400 232.672,242.232 232.400,242.027 232.400 C 241.822 232.400,241.545 232.057,241.412 231.637 C 241.278 231.217,240.276 229.679,239.185 228.219 C 238.093 226.758,237.200 225.431,237.200 225.270 C 237.200 225.109,236.840 224.717,236.400 224.400 C 235.960 224.083,235.600 223.543,235.600 223.200 C 235.600 222.857,235.240 222.317,234.800 222.000 C 234.360 221.683,234.000 221.220,234.000 220.971 C 234.000 220.722,233.460 219.954,232.800 219.263 C 232.140 218.572,231.600 217.775,231.600 217.492 C 231.600 217.209,231.240 216.717,230.800 216.400 C 230.360 216.083,230.000 215.543,230.000 215.200 C 230.000 214.857,229.640 214.317,229.200 214.000 C 228.760 213.683,228.400 213.193,228.400 212.912 C 228.400 212.630,228.220 212.400,228.000 212.400 C 227.780 212.400,227.600 212.170,227.600 211.888 C 227.600 211.607,227.240 211.117,226.800 210.800 C 226.360 210.483,226.000 209.993,226.000 209.712 C 226.000 209.430,225.847 209.200,225.661 209.200 C 225.474 209.200,224.997 208.480,224.600 207.600 C 224.203 206.720,223.738 206.000,223.566 206.000 C 223.394 206.000,223.138 205.634,222.996 205.187 C 222.854 204.740,222.302 203.938,221.769 203.405 C 221.236 202.872,220.800 202.198,220.800 201.906 C 220.800 201.615,220.440 201.117,220.000 200.800 C 219.560 200.483,219.200 200.038,219.199 199.812 C 219.199 199.585,218.659 198.770,218.000 198.000 C 217.341 197.230,216.801 196.441,216.801 196.247 C 216.800 196.053,216.484 195.603,216.097 195.247 C 215.711 194.891,215.140 194.105,214.830 193.500 C 214.519 192.895,214.115 192.400,213.932 192.400 C 213.750 192.400,213.600 192.170,213.600 191.888 C 213.600 191.607,213.240 191.117,212.800 190.800 C 212.360 190.483,212.000 189.991,212.000 189.708 C 212.000 189.425,211.460 188.628,210.800 187.937 C 210.140 187.246,209.600 186.478,209.600 186.229 C 209.600 185.980,209.240 185.517,208.800 185.200 C 208.360 184.883,208.000 184.391,208.000 184.108 C 208.000 183.656,205.473 179.736,204.836 179.200 C 204.706 179.090,204.344 178.505,204.032 177.900 C 203.720 177.295,203.315 176.800,203.132 176.800 C 202.950 176.800,202.800 176.570,202.800 176.288 C 202.800 176.007,202.440 175.517,202.000 175.200 C 201.560 174.883,201.200 174.438,201.199 174.212 C 201.199 173.985,200.659 173.170,200.000 172.400 C 199.341 171.630,198.801 170.815,198.801 170.588 C 198.800 170.362,198.440 169.917,198.000 169.600 C 197.560 169.283,197.200 168.743,197.200 168.400 C 197.200 168.057,196.840 167.517,196.400 167.200 C 195.960 166.883,195.600 166.438,195.599 166.212 C 195.599 165.985,195.059 165.170,194.400 164.400 C 193.741 163.630,193.201 162.815,193.201 162.588 C 193.200 162.362,192.840 161.917,192.400 161.600 C 191.960 161.283,191.600 160.848,191.600 160.633 C 191.600 160.194,189.766 157.405,188.700 156.225 C 188.315 155.798,188.000 155.253,188.000 155.013 C 188.000 154.773,187.640 154.317,187.200 154.000 C 186.760 153.683,186.400 153.143,186.400 152.800 C 186.400 152.457,186.040 151.917,185.600 151.600 C 185.160 151.283,184.800 150.838,184.799 150.612 C 184.799 150.385,184.259 149.570,183.600 148.800 C 182.941 148.030,182.401 147.241,182.401 147.047 C 182.400 146.853,182.084 146.403,181.697 146.047 C 181.311 145.691,180.740 144.905,180.430 144.300 C 180.119 143.695,179.715 143.200,179.532 143.200 C 179.350 143.200,179.200 142.970,179.200 142.688 C 179.200 142.407,178.840 141.917,178.400 141.600 C 177.960 141.283,177.600 140.775,177.600 140.472 C 177.600 140.169,177.060 139.417,176.400 138.800 C 175.740 138.183,175.200 137.489,175.200 137.257 C 175.200 136.808,173.724 134.452,172.408 132.800 C 171.969 132.250,171.608 131.641,171.605 131.447 C 171.602 131.253,171.284 130.803,170.897 130.447 C 170.511 130.091,169.940 129.305,169.630 128.700 C 169.319 128.095,168.915 127.600,168.732 127.600 C 168.550 127.600,168.400 127.370,168.400 127.088 C 168.400 126.807,168.040 126.317,167.600 126.000 C 167.160 125.683,166.800 125.220,166.800 124.971 C 166.800 124.722,166.260 123.954,165.600 123.263 C 164.940 122.572,164.400 121.775,164.400 121.492 C 164.400 121.209,164.040 120.717,163.600 120.400 C 163.160 120.083,162.800 119.543,162.800 119.200 C 162.800 118.857,162.440 118.317,162.000 118.000 C 161.560 117.683,161.200 117.220,161.200 116.971 C 161.200 116.722,160.660 115.954,160.000 115.263 C 159.340 114.572,158.800 113.751,158.800 113.437 C 158.800 113.123,158.662 112.807,158.493 112.733 C 158.324 112.660,157.566 111.625,156.809 110.434 C 156.052 109.243,155.020 107.856,154.516 107.353 C 154.012 106.849,153.600 106.198,153.600 105.906 C 153.600 105.615,153.240 105.117,152.800 104.800 C 152.360 104.483,152.000 103.943,152.000 103.600 C 152.000 103.257,151.640 102.717,151.200 102.400 C 150.760 102.083,150.400 101.638,150.399 101.412 C 150.399 101.185,149.859 100.370,149.200 99.600 C 148.541 98.830,148.001 98.041,148.001 97.847 C 148.000 97.653,147.684 97.203,147.297 96.847 C 146.911 96.491,146.340 95.705,146.030 95.100 C 145.719 94.495,145.315 94.000,145.132 94.000 C 144.950 94.000,144.800 93.818,144.800 93.596 C 144.800 93.374,144.260 92.628,143.600 91.937 C 142.940 91.246,142.400 90.438,142.400 90.141 C 142.400 89.843,142.247 89.600,142.061 89.600 C 141.874 89.600,141.397 88.880,141.000 88.000 C 140.603 87.120,140.138 86.400,139.966 86.400 C 139.794 86.400,139.538 86.034,139.396 85.587 C 139.254 85.140,138.702 84.338,138.169 83.805 C 137.636 83.272,137.200 82.598,137.200 82.306 C 137.200 82.015,136.840 81.517,136.400 81.200 C 135.960 80.883,135.600 80.438,135.600 80.212 C 135.599 79.985,135.173 79.305,134.653 78.700 L 133.707 77.600 114.920 77.600 C 104.587 77.600,96.013 77.720,95.867 77.867 " stroke="none" fill="#040404" fill-rule="evenodd"></path><path id="path1" d="" stroke="none" fill="#080404" fill-rule="evenodd"></path><path id="path2" d="" stroke="none" fill="#080404" fill-rule="evenodd"></path><path id="path3" d="" stroke="none" fill="#080404" fill-rule="evenodd"></path><path id="path4" d="" stroke="none" fill="#080404" fill-rule="evenodd"></path></g></svg>